<?xml version="1.0" encoding="UTF-8"?>
<svg version="1.1" xmlns="http://www.w3.org/2000/svg" width="46" height="26">
<path d="M0 0 C0.99 0 1.98 0 3 0 C3.33 1.65 3.66 3.3 4 5 C4.66 4.67 5.32 4.34 6 4 C12.47058824 3.64705882 12.47058824 3.64705882 16 6 C16.33 5.67 16.66 5.34 17 5 C15.68 4.34 14.36 3.68 13 3 C13 2.01 13 1.02 13 0 C17.29 0 21.58 0 26 0 C25 5 25 5 24 7 C24.99 7.66 25.98 8.32 27 9 C27.3984375 11.05859375 27.3984375 11.05859375 27.375 13.4375 C27.38660156 14.61119141 27.38660156 14.61119141 27.3984375 15.80859375 C26.9124922 18.48129291 26.09630323 19.32807035 24 21 C21.29120665 22.35439668 18.99066732 22.06501451 16 22 C16.33 23.32 16.66 24.64 17 26 C12.05 26 7.1 26 2 26 C2 20 2 20 4 17 C2.02 16.67 0.04 16.34 -2 16 C-2.66 17.98 -3.32 19.96 -4 22 C-5.65 22 -7.3 22 -9 22 C-8.4560915 16.52638111 -6.44606199 12.41682999 -3.9375 7.625 C-3.37192383 6.52091797 -3.37192383 6.52091797 -2.79492188 5.39453125 C-1.87055636 3.59260354 -0.93627386 1.79576901 0 0 Z M2 7 C1.67 8.32 1.34 9.64 1 11 C1.99 11 2.98 11 4 11 C3.34 9.68 2.68 8.36 2 7 Z M8 8 C7.34 8.66 6.68 9.32 6 10 C6.32041397 12.60280568 6.32041397 12.60280568 7 15 C8.32 14.34 9.64 13.68 11 13 C10.67 11.35 10.34 9.7 10 8 C9.34 8 8.68 8 8 8 Z M17 10 C16.34 11.98 15.68 13.96 15 16 C16.06645115 17.29633621 16.06645115 17.29633621 18.5625 17.0625 C19.366875 17.041875 20.17125 17.02125 21 17 C21.66 15.68 22.32 14.36 23 13 C21.68798827 11.43750191 21.68798827 11.43750191 20 10 C19.01 10 18.02 10 17 10 Z M11 18 C9.68 19.32 8.36 20.64 7 22 C9.97 22 12.94 22 16 22 C14.35 20.68 12.7 19.36 11 18 Z " fill="#DEBD6D" transform="translate(9,0)"/>
</svg>
