<?xml version="1.0" encoding="UTF-8"?>
<svg version="1.1" xmlns="http://www.w3.org/2000/svg" width="140" height="72">
<path d="M0 0 C3.74924432 1.63010623 5.99511426 3.44944815 8 7 C8.49845796 10.12925056 8.50964513 13.21139881 8.5 16.375 C8.52835938 17.21289062 8.55671875 18.05078125 8.5859375 18.9140625 C8.59952095 23.23359865 8.37254515 26.11664936 5.59375 29.5390625 C2.00296204 32.94598481 0.39827476 33.13784402 -4.4375 33.125 C-5.40558594 33.12757812 -6.37367187 33.13015625 -7.37109375 33.1328125 C-10 33 -10 33 -13 32 C-13 30.68 -13 29.36 -13 28 C-11.75283203 28.03480469 -11.75283203 28.03480469 -10.48046875 28.0703125 C-9.39378906 28.08835937 -8.30710937 28.10640625 -7.1875 28.125 C-6.10855469 28.14820312 -5.02960937 28.17140625 -3.91796875 28.1953125 C-0.80597132 28.23023717 -0.80597132 28.23023717 2 26 C2 25.01 2 24.02 2 23 C1.34 23.33 0.68 23.66 0 24 C-3.94120622 24.63412483 -7.4890853 24.75685376 -11.11328125 22.94140625 C-14.43238384 20.40569434 -16.37171067 18.16713247 -17.125 14 C-17.32469089 8.76809875 -15.30961255 5.46368462 -11.875 1.625 C-7.86369945 -0.64225683 -4.50898021 -0.6804461 0 0 Z M-11 7 C-12.44430855 9.88861709 -12.37688506 11.79647701 -12 15 C-9.51397551 18.36344489 -8.08574477 19.80057749 -3.9375 20.5625 C-0.28744421 19.86355315 0.85564611 19.01797955 3 16 C3.91533918 12.86169424 4.27169252 10.88917552 3.3125 7.75 C1.7131025 5.61747 0.50677489 4.88474408 -2 4 C-6.29387011 4 -7.58866484 4.60284556 -11 7 Z " fill="#595A5A" transform="translate(45,9)"/>
<path d="M0 0 C3.24660489 1.88893375 5.37228213 3.28259212 6.6953125 6.90234375 C7.33744975 10.46142359 7.0532775 12.82351829 6 16.3125 C3.32384704 19.90858054 1.32684856 20.8650889 -3 22 C-7.63792837 21.87020723 -10.27750802 20.72249198 -13.5625 17.4375 C-15.44299262 12.94066981 -15.58822588 9.62029346 -14 5 C-9.9961491 0.2149099 -6.02581423 -1.4615295 0 0 Z " fill="#ED353E" transform="translate(16,50)"/>
<path d="M0 0 C3.06048212 1.79636994 4.57072503 3.27803755 6.375 6.3125 C7.22094728 9.95007329 6.96685978 12.39039015 6 16 C3.58103514 19.17921096 1.90080881 20.6866752 -1.875 22 C-5.96755025 22 -8.44771072 21.01072978 -12 19 C-14.4653642 16.13699641 -14.95550348 14.30591356 -15.5 10.5625 C-14.83624442 5.83324149 -13.34318209 4.34318209 -10 1 C-6.79139471 -0.60430264 -3.4809543 -0.48105318 0 0 Z " fill="#06AE56" transform="translate(74,50)"/>
<path d="M0 0 C3.06048212 1.79636994 4.57072503 3.27803755 6.375 6.3125 C7.22094728 9.95007329 6.96685978 12.39039015 6 16 C3.58103514 19.17921096 1.90080881 20.6866752 -1.875 22 C-5.96755025 22 -8.44771072 21.01072978 -12 19 C-14.4653642 16.13699641 -14.95550348 14.30591356 -15.5 10.5625 C-14.83624442 5.83324149 -13.34318209 4.34318209 -10 1 C-6.79139471 -0.60430264 -3.4809543 -0.48105318 0 0 Z " fill="#FCB615" transform="translate(45,50)"/>
<path d="M0 0 C3.13115939 2.69627614 4.12695556 4.97381375 5.25 8.9375 C4.66079605 12.80005923 3.81263061 15.17392988 1.5 18.3125 C-1.40468856 20.41033063 -3.16076522 20.86712285 -6.75 20.9375 C-10.27058961 19.8037508 -12.89336154 18.68360447 -15.6875 16.25 C-17.25888492 12.82992695 -17.2880097 9.59451191 -16.75 5.9375 C-15.50011855 3.06277265 -14.49531416 1.49648562 -12 -0.375 C-7.76144423 -1.67011426 -4.12986827 -1.59563092 0 0 Z " fill="#A0479A" transform="translate(104.75,51.0625)"/>
<path d="M0 0 C2.50488418 1.93233922 3.98372162 3.56135634 4.55859375 6.73828125 C4.67907967 10.84188987 4.59160713 13.82891079 2.0625 17.1875 C-1.18551889 20.01186425 -2.53444228 20.77306115 -6.8125 20.6875 C-10.33308961 19.5537508 -12.95586154 18.43360447 -15.75 16 C-17.32138492 12.57992695 -17.3505097 9.34451191 -16.8125 5.6875 C-15.56261855 2.81277265 -14.55781416 1.24648562 -12.0625 -0.625 C-7.72512545 -1.95030889 -4.11709119 -1.92130922 0 0 Z " fill="#03A9DF" transform="translate(133.8125,51.3125)"/>
<path d="M0 0 C1.32 0 2.64 0 4 0 C4.11662261 4.04142215 4.1873935 8.08240865 4.25 12.125 C4.30027344 13.83816406 4.30027344 13.83816406 4.3515625 15.5859375 C4.47673857 26.35107918 4.47673857 26.35107918 0 31 C-4.00323985 33.73739326 -8.31748064 33.65733807 -13 33 C-16.43139495 31.31549703 -18.34327715 29.99936086 -20.4375 26.8125 C-21.25847867 22.70760665 -21.15538458 19.03653348 -20 15 C-17.80176185 12.29447612 -16.10443333 10.55221667 -13 9 C-10.94140625 8.83203125 -10.94140625 8.83203125 -8.5625 8.8125 C-7.78003906 8.79832031 -6.99757813 8.78414062 -6.19140625 8.76953125 C-4 9 -4 9 -1 11 C-0.67 7.37 -0.34 3.74 0 0 Z M-16 18 C-16.83333333 21 -16.83333333 21 -16 24 C-14.08333333 27.08333333 -14.08333333 27.08333333 -11 29 C-7.42813335 29 -5.11888401 28.74592267 -2.125 26.75 C-0.61536655 24.4016813 -0.13336945 22.80075852 0 20 C-1.62155629 16.51365399 -2.76453292 15.15697806 -6 13 C-10.99341956 12.08015955 -13.03910238 14.10853455 -16 18 Z " fill="#595A5A" transform="translate(107,0)"/>
<path d="M0 0 C4.04523481 2.05939227 6.47161455 3.71770344 8 8 C8.13997227 10.78824758 8.1888913 13.46827116 8.125 16.25 C8.11597656 16.99507812 8.10695312 17.74015625 8.09765625 18.5078125 C8.07418358 20.33868059 8.03831525 22.16938238 8 24 C4 24 4 24 2 23 C1.34 23.33 0.68 23.66 0 24 C-4.23660902 24.43281664 -7.91394711 24.44858706 -11.875 22.8125 C-15.73352527 19.52140491 -16.87371965 17.13652312 -17.4375 12.0625 C-17.26839443 7.80265006 -15.78860181 5.25336878 -13 2 C-8.79680448 -0.56764245 -4.80111245 -0.68230714 0 0 Z M-12 8 C-12.72307113 10.8228697 -12.71046028 13.17548716 -12 16 C-10.08817732 18.74612994 -10.08817732 18.74612994 -7 20 C-3.50694211 19.93977486 -1.09633511 19.63658168 1.9375 17.875 C3.69937187 14.76581435 3.48159369 12.49155423 3 9 C0.7132584 5.92923271 -0.72407146 4.28708392 -4.5 3.4375 C-8.02666021 4.23099855 -9.61054251 5.26919144 -12 8 Z " fill="#595A5A" transform="translate(132,9)"/>
<path d="M0 0 C3.72785438 2.86475509 5.32150078 5.54559803 6.1484375 10.09375 C6.29207395 14.10018103 6.26513904 18.08699729 6.1484375 22.09375 C4.1684375 23.08375 4.1684375 23.08375 2.1484375 24.09375 C1.4884375 23.10375 0.8284375 22.11375 0.1484375 21.09375 C-0.8415625 21.75375 -1.8315625 22.41375 -2.8515625 23.09375 C-6.62845154 23.77718706 -10.32343139 23.94482095 -13.73828125 22.04296875 C-16.66961506 19.63686182 -18.64519457 17.73290098 -19.125 13.921875 C-19.43301378 6.10306374 -19.43301378 6.10306374 -16.5390625 2.53125 C-12.13554559 -1.46263743 -5.5231312 -2.70330472 0 0 Z M-12.8515625 5.09375 C-14.74042503 7.61223338 -14.85872089 8.92194868 -14.7265625 12.09375 C-13.70384102 15.60022364 -12.83652694 16.99620742 -9.8515625 19.09375 C-6.89464541 19.84390195 -6.89464541 19.84390195 -3.8515625 19.09375 C-0.48811761 16.60772551 0.94901499 15.17949477 1.7109375 11.03125 C1.01199065 7.38119421 0.16641705 6.23810389 -2.8515625 4.09375 C-6.81322455 2.93826524 -9.46135617 2.55109525 -12.8515625 5.09375 Z " fill="#595A5A" transform="translate(18.8515625,9.90625)"/>
<path d="M0 0 C3.8026029 2.0050088 5.61790841 3.42686262 8 7 C8.66624845 11.07463524 8.94496094 15.24356703 6.94921875 18.953125 C5.18683214 21.0950226 3.49210321 22.7539484 1 24 C-3.52589985 24.41654299 -7.66641891 24.51073318 -11.9375 22.875 C-15.17186816 19.93466531 -16.8660711 17.23346132 -17.1328125 12.78515625 C-16.88772197 8.45282078 -16.36062608 6.44384749 -13.5625 3 C-9.13137045 -0.45844257 -5.51042388 -0.68533003 0 0 Z M-12 9 C-12.83333333 12 -12.83333333 12 -12 15 C-10.08333333 18.08333333 -10.08333333 18.08333333 -7 20 C-2.67032286 20.1519185 -0.76927242 19.67311337 2.5 16.8125 C4.22940651 14.08067798 4.22940651 14.08067798 4.0625 10.9375 C2.72765196 7.24703777 1.36063527 5.98582993 -2 4 C-6.94324947 2.88776887 -9.07649444 5.15767841 -12 9 Z " fill="#595959" transform="translate(74,9)"/>
</svg>
