<?xml version="1.0" encoding="UTF-8"?>
<svg version="1.1" xmlns="http://www.w3.org/2000/svg" width="130" height="40">
<path d="M0 0 C42.9 0 85.8 0 130 0 C130 13.2 130 26.4 130 40 C87.1 40 44.2 40 0 40 C0 26.8 0 13.6 0 0 Z " fill="#FEFDFC" transform="translate(0,0)"/>
<path d="M0 0 C2.12472576 -0.05386629 4.24983652 -0.09273071 6.375 -0.125 C7.55835937 -0.14820313 8.74171875 -0.17140625 9.9609375 -0.1953125 C13 0 13 0 15 2 C14.89618775 4.53301886 14.67423788 6.87829932 14.3125 9.375 C14.19358398 10.38433594 14.19358398 10.38433594 14.07226562 11.4140625 C13.53756243 15.32239667 13.09446664 18.4059152 10 21 C6.86328125 21.390625 6.86328125 21.390625 3.3125 21.25 C1.54326172 21.19585938 1.54326172 21.19585938 -0.26171875 21.140625 C-1.16535156 21.09421875 -2.06898437 21.0478125 -3 21 C-2.46212879 18.15073631 -1.84119856 15.51425443 -0.9375 12.75 C0.15380346 8.38478614 0.18233769 4.46727338 0 0 Z " fill="#F98B5A" transform="translate(91,9)"/>
<path d="M0 0 C0.89589844 0.01417969 1.79179688 0.02835938 2.71484375 0.04296875 C4.06255859 0.05263672 4.06255859 0.05263672 5.4375 0.0625 C7.65234375 0.23046875 7.65234375 0.23046875 8.65234375 1.23046875 C9.22089779 7.15400854 8.85493449 13.65920981 6.65234375 19.23046875 C3.33863375 21.43960875 2.30774165 21.45528428 -1.53515625 21.35546875 C-2.43621094 21.33742188 -3.33726563 21.319375 -4.265625 21.30078125 C-4.95269531 21.27757813 -5.63976562 21.254375 -6.34765625 21.23046875 C-7.72701634 18.47174857 -7.28808034 16.47948278 -7.03515625 13.41796875 C-6.95652344 12.38027344 -6.87789063 11.34257812 -6.796875 10.2734375 C-6.13244962 5.77267774 -5.24686938 0.51508368 0 0 Z " fill="#F96826" transform="translate(79.34765625,8.76953125)"/>
<path d="M0 0 C1.32 0 2.64 0 4 0 C4.99 2.97 5.98 5.94 7 9 C7.66 6.69 8.32 4.38 9 2 C9.66 2 10.32 2 11 2 C11 1.34 11 0.68 11 0 C11.99 0.33 12.98 0.66 14 1 C13.32418477 7.08233706 12.26361972 13.01314152 11 19 C9.35 19.33 7.7 19.66 6 20 C4.68 17.69 3.36 15.38 2 13 C1.34 15.31 0.68 17.62 0 20 C-1.32 20.33 -2.64 20.66 -4 21 C-3.68306995 17.33170323 -3.34681006 13.6655897 -3 10 C-2.9278125 9.19433594 -2.855625 8.38867188 -2.78125 7.55859375 C-2.23190452 2.23190452 -2.23190452 2.23190452 0 0 Z " fill="#FB5912" transform="translate(42,9)"/>
<path d="M0 0 C1.98 0 3.96 0 6 0 C6.33 6.6 6.66 13.2 7 20 C5.68 20.33 4.36 20.66 3 21 C2 20 2 20 1.9375 17.4375 C1.958125 16.633125 1.97875 15.82875 2 15 C-0.94727535 15.10169161 -0.94727535 15.10169161 -4 16 C-5.45291273 18.46255685 -5.45291273 18.46255685 -6 21 C-7.32 21 -8.64 21 -10 21 C-9.39979564 16.16085239 -7.31530243 12.45154531 -5 8.25 C-4.63132812 7.56550781 -4.26265625 6.88101562 -3.8828125 6.17578125 C-1.16301407 1.16301407 -1.16301407 1.16301407 0 0 Z " fill="#FC601B" transform="translate(29,9)"/>
<path d="M0 0 C1.33417969 0.02320313 1.33417969 0.02320313 2.6953125 0.046875 C4.875 0.25 4.875 0.25 5.875 1.25 C5.91592937 3.58297433 5.91741723 5.91705225 5.875 8.25 C4.225 8.25 2.575 8.25 0.875 8.25 C0.875 7.26 0.875 6.27 0.875 5.25 C-0.775 5.25 -2.425 5.25 -4.125 5.25 C-4.455 8.88 -4.785 12.51 -5.125 16.25 C-3.475 16.25 -1.825 16.25 -0.125 16.25 C-0.125 15.26 -0.125 14.27 -0.125 13.25 C1.195 13.25 2.515 13.25 3.875 13.25 C4.23921725 17.74201278 4.23921725 17.74201278 2.6875 19.90625 C0.25078437 21.71278055 -1.31444021 21.55430752 -4.3125 21.4375 C-5.66408203 21.39689453 -5.66408203 21.39689453 -7.04296875 21.35546875 C-7.73003906 21.32066406 -8.41710938 21.28585938 -9.125 21.25 C-10.4975976 15.0733108 -10.01553073 9.30741479 -8.125 3.25 C-5.84184139 -0.04001738 -3.87435848 -0.11295506 0 0 Z " fill="#F85D17" transform="translate(66.125,8.75)"/>
<path d="M0 0 C3.96 0 7.92 0 12 0 C12 1.32 12 2.64 12 4 C9.03 4 6.06 4 3 4 C3 5.32 3 6.64 3 8 C4.98 8 6.96 8 9 8 C9 9.32 9 10.64 9 12 C6.69 12 4.38 12 2 12 C2 13.32 2 14.64 2 16 C4.64 16 7.28 16 10 16 C10 17.65 10 19.3 10 21 C5.38 21 0.76 21 -4 21 C-2 6 -2 6 0 0 Z " fill="#F89163" transform="translate(109,9)"/>
<path d="M0 0 C1.49080078 0.02707031 1.49080078 0.02707031 3.01171875 0.0546875 C3.77097656 0.07789063 4.53023437 0.10109375 5.3125 0.125 C5.6425 1.115 5.9725 2.105 6.3125 3.125 C4.34427114 5.09322886 0.96441291 4.78748381 -1.6875 5.125 C-2.0175 6.445 -2.3475 7.765 -2.6875 9.125 C-1.3675 9.125 -0.0475 9.125 1.3125 9.125 C0.9825 10.445 0.6525 11.765 0.3125 13.125 C-1.0075 13.125 -2.3275 13.125 -3.6875 13.125 C-3.97625 14.23875 -4.265 15.3525 -4.5625 16.5 C-5.6875 20.125 -5.6875 20.125 -7.6875 22.125 C-9.93604714 19.87645286 -8.91998301 14.70699156 -8.9375 11.6875 C-8.958125 10.80255859 -8.97875 9.91761719 -9 9.00585938 C-9.00515625 8.15958984 -9.0103125 7.31332031 -9.015625 6.44140625 C-9.0249707 5.66224854 -9.03431641 4.88309082 -9.04394531 4.08032227 C-8.92631836 3.43506592 -8.80869141 2.78980957 -8.6875 2.125 C-5.26655758 -0.15562828 -4.00562778 -0.09425007 0 0 Z " fill="#FB550D" transform="translate(17.6875,8.875)"/>
<path d="M0 0 C3.96 0 7.92 0 12 0 C12 1.32 12 2.64 12 4 C9.03 4 6.06 4 3 4 C3 5.32 3 6.64 3 8 C4.98 8 6.96 8 9 8 C9 9.32 9 10.64 9 12 C6.69 12 4.38 12 2 12 C1.67 13.65 1.34 15.3 1 17 C3.64 17 6.28 17 9 17 C9 17.99 9 18.98 9 20 C5.04 20 1.08 20 -3 20 C-2.01 19.34 -1.02 18.68 0 18 C0.16666667 15 0.16666667 15 0 12 C0.33 11.34 0.66 10.68 1 10 C1.36141955 7.67085177 1.69699525 5.33746522 2 3 C1.67 3.33 1.34 3.66 1 4 C0.67 2.68 0.34 1.36 0 0 Z " fill="#FB5309" transform="translate(109,9)"/>
<path d="M0 0 C0.89589844 0.01417969 1.79179688 0.02835938 2.71484375 0.04296875 C4.06255859 0.05263672 4.06255859 0.05263672 5.4375 0.0625 C7.65234375 0.23046875 7.65234375 0.23046875 8.65234375 1.23046875 C8.69327312 3.56344308 8.69476098 5.897521 8.65234375 8.23046875 C7.00234375 8.23046875 5.35234375 8.23046875 3.65234375 8.23046875 C3.65234375 7.24046875 3.65234375 6.25046875 3.65234375 5.23046875 C2.33234375 4.90046875 1.01234375 4.57046875 -0.34765625 4.23046875 C1.30234375 4.23046875 2.95234375 4.23046875 4.65234375 4.23046875 C4.65234375 5.22046875 4.65234375 6.21046875 4.65234375 7.23046875 C4.98234375 5.91046875 5.31234375 4.59046875 5.65234375 3.23046875 C3.01234375 3.23046875 0.37234375 3.23046875 -2.34765625 3.23046875 C-3.00765625 8.18046875 -3.66765625 13.13046875 -4.34765625 18.23046875 C-1.70765625 18.23046875 0.93234375 18.23046875 3.65234375 18.23046875 C3.65234375 18.56046875 3.65234375 18.89046875 3.65234375 19.23046875 C0.68234375 19.23046875 -2.28765625 19.23046875 -5.34765625 19.23046875 C-5.57120232 17.33636897 -5.77585576 15.44003395 -5.97265625 13.54296875 C-6.08867188 12.48722656 -6.2046875 11.43148438 -6.32421875 10.34375 C-6.34902956 7.04804789 -5.84594254 5.14040573 -4.34765625 2.23046875 C-2.34765625 0.23046875 -2.34765625 0.23046875 0 0 Z " fill="#FA854F" transform="translate(63.34765625,8.76953125)"/>
<path d="M0 0 C1.32 0.66 2.64 1.32 4 2 C2.50829734 6.9723422 0.39542583 11.41845739 -2 16 C-2.33 15.34 -2.66 14.68 -3 14 C-3.66 14 -4.32 14 -5 14 C-4.67 12.35 -4.34 10.7 -4 9 C-5.32 9 -6.64 9 -8 9 C-7.67 7.35 -7.34 5.7 -7 4 C-3.535 3.505 -3.535 3.505 0 3 C0 2.01 0 1.02 0 0 Z " fill="#FBECE4" transform="translate(23,9)"/>
<path d="M0 0 C0.99 0.66 1.98 1.32 3 2 C3.64716532 8.68737494 3.64716532 8.68737494 1.89453125 12.2421875 C0 14 0 14 -3.13671875 14.390625 C-4.30847656 14.34421875 -5.48023437 14.2978125 -6.6875 14.25 C-8.45673828 14.19585938 -8.45673828 14.19585938 -10.26171875 14.140625 C-11.16535156 14.09421875 -12.06898437 14.0478125 -13 14 C-13 12.68 -13 11.36 -13 10 C-12.01 10.33 -11.02 10.66 -10 11 C-8.27204648 11.06802967 -6.54164635 11.08495645 -4.8125 11.0625 C-3.91144531 11.05347656 -3.01039062 11.04445313 -2.08203125 11.03515625 C-1.05142578 11.01775391 -1.05142578 11.01775391 0 11 C-0.33 11 -0.66 11 -1 11 C-3.33333333 11 -5.66666667 11 -8 11 C-7.67 9.68 -7.34 8.36 -7 7 C-7 7.99 -7 8.98 -7 10 C-5.35 9.67 -3.7 9.34 -2 9 C-1.34 6.03 -0.68 3.06 0 0 Z " fill="#FA611C" transform="translate(101,16)"/>
<path d="M0 0 C1.32 0 2.64 0 4 0 C4 0.99 4 1.98 4 3 C4.99 3 5.98 3 7 3 C7 3.99 7 4.98 7 6 C5.576875 6.0928125 5.576875 6.0928125 4.125 6.1875 C3.09375 6.455625 2.0625 6.72375 1 7 C-0.45291273 9.46255685 -0.45291273 9.46255685 -1 12 C-2.32 12 -3.64 12 -5 12 C-4.42365861 7.24518354 -2.44931479 4.02951788 0 0 Z " fill="#FB5915" transform="translate(24,18)"/>
<path d="M0 0 C1.98 0 3.96 0 6 0 C5.85962479 1.81293089 5.71255111 3.6253443 5.5625 5.4375 C5.48128906 6.44683594 5.40007812 7.45617187 5.31640625 8.49609375 C5 11 5 11 4 12 C2.33382885 12.04063832 0.66611905 12.042721 -1 12 C-1.08159574 7.83861737 -0.98248524 4.0527516 0 0 Z " fill="#FBEFEA" transform="translate(78,13)"/>
<path d="M0 0 C2.20631651 4.41263303 2.09132901 5.52039787 1.25 10.1875 C1.06953125 11.25355469 0.8890625 12.31960937 0.703125 13.41796875 C0.35507813 14.69607422 0.35507813 14.69607422 0 16 C-2.62315032 17.31157516 -4.23033436 16.89649988 -7.125 16.5625 C-8.03507812 16.46066406 -8.94515625 16.35882812 -9.8828125 16.25390625 C-10.58148438 16.17011719 -11.28015625 16.08632813 -12 16 C-12 13.69 -12 11.38 -12 9 C-11.67 9 -11.34 9 -11 9 C-11 10.98 -11 12.96 -11 15 C-10.34 13.68 -9.68 12.36 -9 11 C-9 11.66 -9 12.32 -9 13 C-7.02 12.67 -5.04 12.34 -3 12 C-2.01 8.04 -1.02 4.08 0 0 Z " fill="#FB8F5E" transform="translate(86,12)"/>
<path d="M0 0 C9.9609375 -0.1953125 9.9609375 -0.1953125 13 0 C13.66 0.66 14.32 1.32 15 2 C14.625 5.125 14.625 5.125 14 8 C13.67 8 13.34 8 13 8 C12.67 6.35 12.34 4.7 12 3 C9.03 3 6.06 3 3 3 C2.34 7.29 1.68 11.58 1 16 C0.67 16 0.34 16 0 16 C0 10.72 0 5.44 0 0 Z " fill="#F85D16" transform="translate(91,9)"/>
<path d="M0 0 C1.65 0 3.3 0 5 0 C4.67 3.63 4.34 7.26 4 11 C2.35 11 0.7 11 -1 11 C-1.14285714 3.57142857 -1.14285714 3.57142857 0 0 Z " fill="#FCF9F6" transform="translate(96,14)"/>
<path d="M0 0 C1.65 0.33 3.3 0.66 5 1 C4.71125 1.7425 4.4225 2.485 4.125 3.25 C2.57352403 8.42158657 1.8108526 13.66907548 1 19 C0.01 19 -0.98 19 -2 19 C-1.855625 17.71222656 -1.71125 16.42445312 -1.5625 15.09765625 C-1.37497126 13.41927404 -1.18747282 11.74088845 -1 10.0625 C-0.90460937 9.21236328 -0.80921875 8.36222656 -0.7109375 7.48632812 C-0.57558594 6.27299805 -0.57558594 6.27299805 -0.4375 5.03515625 C-0.35371094 4.2862915 -0.26992188 3.53742676 -0.18359375 2.76586914 C0.01723509 1.13012478 0.01723509 1.13012478 0 0 Z " fill="#FCEADF" transform="translate(55,9)"/>
<path d="M0 0 C0.66 0 1.32 0 2 0 C1.34 4.62 0.68 9.24 0 14 C1.32 13.67 2.64 13.34 4 13 C4.33 12.01 4.66 11.02 5 10 C5.33 11.32 5.66 12.64 6 14 C3.24921116 14.91692961 1.64051087 15.10886083 -1.1875 15.0625 C-3.0746875 15.0315625 -3.0746875 15.0315625 -5 15 C-4.34 14.34 -3.68 13.68 -3 13 C-2.75684344 10.33050591 -2.75684344 10.33050591 -2.875 7.375 C-2.89304688 6.37210938 -2.91109375 5.36921875 -2.9296875 4.3359375 C-2.95289063 3.56507812 -2.97609375 2.79421875 -3 2 C-2.34 2.66 -1.68 3.32 -1 4 C-0.67 2.68 -0.34 1.36 0 0 Z " fill="#F8E6DC" transform="translate(38,16)"/>
<path d="M0 0 C0.33 0 0.66 0 1 0 C1 2.64 1 5.28 1 8 C2.32 8.33 3.64 8.66 5 9 C4.195625 8.979375 3.39125 8.95875 2.5625 8.9375 C0.06645115 8.70366379 0.06645115 8.70366379 -1 10 C2.43230448 9.73606499 2.43230448 9.73606499 6 9 C6.66 8.01 7.32 7.02 8 6 C7.67 7.65 7.34 9.3 7 11 C3.37 11 -0.26 11 -4 11 C-5 8 -5 8 -3.6875 5.3125 C-3.130625 4.549375 -2.57375 3.78625 -2 3 C-1.34 3 -0.68 3 0 3 C0 2.01 0 1.02 0 0 Z " fill="#FB9565" transform="translate(94,17)"/>
<path d="M0 0 C2.97 0 5.94 0 9 0 C9.33 0.99 9.66 1.98 10 3 C8.0625 5.6875 8.0625 5.6875 6 8 C6 6.68 6 5.36 6 4 C4.02 4 2.04 4 0 4 C0 2.68 0 1.36 0 0 Z M10 1 C12 2 12 2 12 2 Z " fill="#FAE8DD" transform="translate(112,13)"/>
<path d="M0 0 C0.66 0 1.32 0 2 0 C1.01 5.94 0.02 11.88 -1 18 C-1.99 17.67 -2.98 17.34 -4 17 C-3.52434234 14.54093963 -3.04463948 12.08279007 -2.5625 9.625 C-2.42779297 8.92632812 -2.29308594 8.22765625 -2.15429688 7.5078125 C-1.11328125 2.2265625 -1.11328125 2.2265625 0 0 Z " fill="#FCEEE8" transform="translate(107,9)"/>
<path d="M0 0 C2 1.0625 2 1.0625 4 3 C4.25 6.6875 4.25 6.6875 4 10 C3.01 10 2.02 10 1 10 C1 9.01 1 8.02 1 7 C-0.32 6.67 -1.64 6.34 -3 6 C-2.01 4.02 -1.02 2.04 0 0 Z " fill="#F9864E" transform="translate(27,11)"/>
<path d="M0 0 C1.32 0 2.64 0 4 0 C4 0.99 4 1.98 4 3 C4.99 3 5.98 3 7 3 C7 3.99 7 4.98 7 6 C4.36 6 1.72 6 -1 6 C-1.042721 4.33388095 -1.04063832 2.66617115 -1 1 C-0.67 0.67 -0.34 0.34 0 0 Z " fill="#F95206" transform="translate(24,18)"/>
<path d="M0 0 C1.32 0.66 2.64 1.32 4 2 C3.67 4.97 3.34 7.94 3 11 C1.68 11.33 0.36 11.66 -1 12 C-0.67 8.04 -0.34 4.08 0 0 Z " fill="#FBE9E0" transform="translate(88,11)"/>
<path d="M0 0 C4.29 0.66 8.58 1.32 13 2 C13 2.66 13 3.32 13 4 C8.71 4 4.42 4 0 4 C0 2.68 0 1.36 0 0 Z " fill="#F36629" transform="translate(88,26)"/>
<path d="M0 0 C1.98 0 3.96 0 6 0 C5.67 0.99 5.34 1.98 5 3 C5.38932856 5.14255793 5.38932856 5.14255793 6 7 C5.01 7.66 4.02 8.32 3 9 C3 7.35 3 5.7 3 4 C2.01 3.67 1.02 3.34 0 3 C0 2.01 0 1.02 0 0 Z " fill="#FB4F03" transform="translate(28,10)"/>
<path d="M0 0 C0.33 0.99 0.66 1.98 1 3 C2.65 3 4.3 3 6 3 C6 2.01 6 1.02 6 0 C7.32 0 8.64 0 10 0 C10 1.65 10 3.3 10 5 C6.7 4.67 3.4 4.34 0 4 C0 2.68 0 1.36 0 0 Z " fill="#F77D47" transform="translate(60,22)"/>
<path d="M0 0 C0.66 0.33 1.32 0.66 2 1 C2 3.64 2 6.28 2 9 C1.01 9 0.02 9 -1 9 C-1.66 7.02 -2.32 5.04 -3 3 C-2.34 2.67 -1.68 2.34 -1 2 C-0.67 1.34 -0.34 0.68 0 0 Z " fill="#FA5305" transform="translate(13,11)"/>
<path d="M0 0 C0.66 0.33 1.32 0.66 2 1 C1.67 3.64 1.34 6.28 1 9 C-1.5654594 6.4345406 -1.54046087 4.52313332 -2 1 C-1.34 0.67 -0.68 0.34 0 0 Z " fill="#FBF2ED" transform="translate(49,11)"/>
<path d="M0 0 C0.66 1.32 1.32 2.64 2 4 C-0.75078884 4.91692961 -2.35948913 5.10886083 -5.1875 5.0625 C-7.0746875 5.0315625 -7.0746875 5.0315625 -9 5 C-7.625 3 -7.625 3 -6 1 C-5.34 1 -4.68 1 -4 1 C-4 1.99 -4 2.98 -4 4 C-2.68 3.67 -1.36 3.34 0 3 C0 2.01 0 1.02 0 0 Z " fill="#FCD6C4" transform="translate(42,26)"/>
<path d="M0 0 C1.98 0.99 1.98 0.99 4 2 C3.25 6.75 3.25 6.75 1 9 C0 8 0 8 -0.09765625 6.15234375 C-0.06510417 4.1015625 -0.03255208 2.05078125 0 0 Z " fill="#FB5F1E" transform="translate(9,22)"/>
<path d="M0 0 C0.66 0 1.32 0 2 0 C2 0.66 2 1.32 2 2 C3.98 2 5.96 2 8 2 C7.01 3.485 7.01 3.485 6 5 C3.03 4.505 3.03 4.505 0 4 C0 2.68 0 1.36 0 0 Z " fill="#FC6119" transform="translate(110,15)"/>
<path d="M0 0 C0 1.65 0 3.3 0 5 C-0.99 5.33 -1.98 5.66 -3 6 C-3.66 6.66 -4.32 7.32 -5 8 C-5.33 7.01 -5.66 6.02 -6 5 C-5.34 5 -4.68 5 -4 5 C-3.87625 4.360625 -3.7525 3.72125 -3.625 3.0625 C-3.41875 2.381875 -3.2125 1.70125 -3 1 C-1 0 -1 0 0 0 Z " fill="#FA6A27" transform="translate(51,17)"/>
<path d="M0 0 C2.33294775 -0.04241723 4.66702567 -0.04092937 7 0 C8 1 8 1 8.0625 4.0625 C8.041875 5.031875 8.02125 6.00125 8 7 C7.79375 6.38125 7.5875 5.7625 7.375 5.125 C5.45224112 2.15346355 3.33405473 1.86975341 0 1 C0 0.67 0 0.34 0 0 Z " fill="#FB5914" transform="translate(80,9)"/>
<path d="M0 0 C0.33 0 0.66 0 1 0 C1 2.64 1 5.28 1 8 C0.01 8 -0.98 8 -2 8 C-1.125 2.25 -1.125 2.25 0 0 Z " fill="#FAF2EB" transform="translate(55,20)"/>
<path d="M0 0 C2.31 0 4.62 0 7 0 C5.1875 2 5.1875 2 3 4 C2.01 4 1.02 4 0 4 C0 2.68 0 1.36 0 0 Z " fill="#F6E3D6" transform="translate(111,21)"/>
<path d="M0 0 C1.98 0.495 1.98 0.495 4 1 C3.67 2.32 3.34 3.64 3 5 C1.68 4.67 0.36 4.34 -1 4 C-0.67 2.68 -0.34 1.36 0 0 Z " fill="#F7601B" transform="translate(10,10)"/>
</svg>
