<?xml version="1.0" encoding="utf-8"?>
<!-- Generator: Adobe Illustrator 16.0.0, SVG Export Plug-In . SVG Version: 6.00 Build 0)  -->
<!DOCTYPE svg PUBLIC "-//W3C//DTD SVG 1.1//EN" "http://www.w3.org/Graphics/SVG/1.1/DTD/svg11.dtd">
<svg version="1.1" height="50" weight="50" id="Layer_1" xmlns="http://www.w3.org/2000/svg" xmlns:xlink="http://www.w3.org/1999/xlink" x="0px" y="0px"
	 viewBox="0 0 293 97" enable-background="new 0 0 293 97" xml:space="preserve">
<g>
	<path fill="#EF6923" d="M34.976,42.047c-0.003-0.844-0.1-1.677-0.287-2.5c-0.08-0.421-0.195-0.832-0.347-1.232
		c-0.151-0.401-0.336-0.786-0.554-1.154c-0.219-0.369-0.467-0.715-0.746-1.041c-0.278-0.325-0.583-0.624-0.914-0.896
		c-0.331-0.272-0.683-0.514-1.056-0.725s-0.761-0.388-1.165-0.531c-0.403-0.144-0.816-0.25-1.239-0.322
		c-0.422-0.071-0.848-0.105-1.275-0.103c-4.919,0-8.793,4.509-8.793,12.4c0,6.497,3.197,11.56,8.793,11.56
		c0.405,0.004,0.808-0.027,1.209-0.09c0.399-0.063,0.792-0.159,1.178-0.287c0.385-0.128,0.756-0.285,1.114-0.474
		c0.359-0.189,0.7-0.406,1.023-0.651c0.323-0.244,0.624-0.515,0.902-0.809c0.279-0.294,0.532-0.609,0.759-0.945
		c0.228-0.336,0.426-0.688,0.594-1.056c0.17-0.369,0.308-0.749,0.414-1.14c0.273-1.153,0.403-2.32,0.39-3.505V42.047z
		 M48.892,24.298c-0.226,2.808-0.389,6.477-0.389,12.974v24.247c0,8.382-1.681,15.228-6.62,19.593
		c-4.939,4.366-11.252,5.309-17.605,5.309c-2.712,0.07-5.396-0.173-8.051-0.727s-5.212-1.404-7.669-2.553l2.685-10.247
		c1.938,1.054,3.975,1.854,6.111,2.402c2.137,0.548,4.308,0.827,6.514,0.836c6.395,0,11.313-3.424,11.313-11.478v-2.829h-0.205
		c-0.679,0.908-1.456,1.722-2.332,2.441s-1.826,1.323-2.849,1.813s-2.089,0.849-3.199,1.079c-1.109,0.23-2.231,0.324-3.364,0.283
		c-10.739,0-18.445-8.792-18.445-21.111c0-14.08,9.059-22.872,19.736-22.872c1.18-0.074,2.348,0.01,3.504,0.252
		c1.156,0.242,2.26,0.633,3.31,1.175c1.051,0.541,2.01,1.212,2.878,2.013c0.868,0.802,1.614,1.704,2.237,2.708h0.185l0.45-5.268
		L48.892,24.298z"/>
	<path fill="#EF6923" d="M67.316,46.146c0,7.419,3.137,13.077,8.916,13.077c5.268,0,8.607-5.288,8.607-13.159
		c0-6.415-2.479-13.035-8.587-13.035C69.797,32.988,67.316,39.629,67.316,46.146L67.316,46.146z M98.797,45.634
		c0,15.843-11.251,23.201-22.872,23.201c-12.687,0-22.545-8.362-22.545-22.545c0-14.183,9.203-23.119,23.201-23.119
		C89.943,23.274,98.797,32.497,98.797,45.634z"/>
	<path fill="#2767A7" d="M103.676,67.852V24.298h13.567v43.553H103.676z M117.633,12.206c0.004,0.44-0.035,0.877-0.117,1.311
		c-0.081,0.433-0.205,0.854-0.369,1.262c-0.165,0.409-0.367,0.797-0.608,1.167c-0.241,0.369-0.516,0.71-0.824,1.025
		c-0.308,0.315-0.644,0.596-1.007,0.845c-0.364,0.249-0.748,0.459-1.153,0.633c-0.405,0.173-0.823,0.305-1.254,0.396
		c-0.431,0.091-0.867,0.139-1.308,0.145h-0.656c-0.432,0.028-0.863,0.014-1.292-0.043c-0.431-0.057-0.851-0.155-1.261-0.294
		s-0.804-0.317-1.179-0.533s-0.727-0.468-1.052-0.752c-0.326-0.286-0.622-0.6-0.886-0.943c-0.265-0.344-0.494-0.709-0.687-1.097
		c-0.192-0.388-0.346-0.792-0.459-1.21s-0.185-0.843-0.215-1.275v-0.533c0-0.471,0.046-0.937,0.138-1.399
		c0.092-0.462,0.228-0.911,0.408-1.345c0.18-0.436,0.401-0.849,0.663-1.24c0.261-0.392,0.559-0.754,0.892-1.087
		s0.696-0.63,1.087-0.892c0.392-0.262,0.806-0.482,1.24-0.663c0.436-0.181,0.884-0.316,1.346-0.408
		c0.462-0.092,0.929-0.138,1.399-0.138s0.938,0.046,1.399,0.138c0.463,0.092,0.911,0.228,1.346,0.408
		c0.436,0.18,0.849,0.401,1.24,0.663c0.392,0.262,0.754,0.559,1.087,0.892s0.631,0.695,0.893,1.087
		c0.262,0.391,0.482,0.805,0.662,1.24c0.181,0.435,0.316,0.883,0.408,1.345c0.093,0.462,0.139,0.928,0.139,1.399L117.633,12.206z"/>
	<path fill="#2767A7" d="M138.148,49.406c-0.021,0.809,0.062,1.608,0.246,2.397c0.1,0.451,0.236,0.892,0.409,1.319
		c0.174,0.429,0.382,0.839,0.626,1.231c0.243,0.394,0.518,0.764,0.823,1.11c0.306,0.346,0.639,0.665,0.999,0.955
		c0.359,0.29,0.74,0.549,1.145,0.774c0.403,0.226,0.822,0.416,1.258,0.57c0.436,0.155,0.881,0.272,1.336,0.352
		c0.455,0.08,0.914,0.12,1.376,0.123c5.718,0,9.325-4.489,9.325-12.298c0-6.784-3.033-12.051-9.325-12.051
		c-0.468,0.011-0.933,0.061-1.393,0.15c-0.46,0.09-0.909,0.217-1.348,0.382c-0.438,0.166-0.86,0.367-1.265,0.604
		s-0.786,0.506-1.145,0.807c-0.359,0.302-0.69,0.631-0.992,0.989c-0.304,0.358-0.575,0.738-0.813,1.142
		c-0.239,0.403-0.442,0.824-0.609,1.262c-0.167,0.438-0.297,0.887-0.388,1.346c-0.182,0.831-0.27,1.671-0.267,2.521V49.406z
		 M124.232,67.852c0.205-2.891,0.368-8.055,0.368-12.994V4.664h13.548v24.819h0.164c0.755-1.014,1.621-1.92,2.6-2.72
		c0.979-0.799,2.041-1.467,3.186-2.003c1.144-0.536,2.337-0.925,3.577-1.167c1.241-0.241,2.492-0.327,3.754-0.258
		c10.556,0,18.077,8.628,17.974,21.991c0,15.681-9.939,23.529-19.921,23.529c-0.648,0.031-1.296,0.019-1.943-0.039
		c-0.646-0.057-1.286-0.157-1.92-0.302c-0.633-0.144-1.254-0.329-1.861-0.558c-0.608-0.228-1.197-0.496-1.77-0.805
		c-0.571-0.309-1.12-0.654-1.644-1.036c-0.525-0.383-1.022-0.799-1.49-1.249s-0.903-0.931-1.307-1.439
		c-0.402-0.509-0.769-1.044-1.1-1.603h-0.164l-0.595,6.149L124.232,67.852z"/>
	<path fill="#2767A7" d="M174.301,67.852V24.298h13.569v43.553H174.301z M188.258,12.206c0,0.471-0.046,0.938-0.137,1.4
		c-0.092,0.461-0.229,0.91-0.408,1.345c-0.181,0.436-0.4,0.849-0.664,1.24c-0.261,0.392-0.558,0.754-0.891,1.087
		c-0.334,0.333-0.695,0.63-1.088,0.892c-0.393,0.261-0.805,0.482-1.239,0.663s-0.885,0.316-1.347,0.408
		c-0.462,0.092-0.928,0.138-1.399,0.138c-0.471,0-0.937-0.045-1.398-0.138c-0.462-0.092-0.912-0.228-1.347-0.408
		s-0.849-0.401-1.239-0.663c-0.393-0.262-0.754-0.56-1.088-0.892c-0.333-0.333-0.63-0.696-0.892-1.087
		c-0.262-0.391-0.482-0.805-0.663-1.24c-0.18-0.435-0.316-0.884-0.408-1.345c-0.092-0.462-0.137-0.929-0.137-1.4
		c0-0.471,0.046-0.937,0.139-1.397c0.093-0.462,0.229-0.91,0.41-1.345c0.179-0.434,0.401-0.847,0.662-1.238
		c0.263-0.391,0.561-0.753,0.893-1.085c0.332-0.333,0.695-0.629,1.086-0.891c0.393-0.262,0.805-0.482,1.239-0.662
		c0.436-0.18,0.885-0.316,1.346-0.407c0.461-0.092,0.927-0.138,1.397-0.138c0.472,0,0.938,0.046,1.398,0.138
		c0.462,0.091,0.91,0.227,1.345,0.407c0.436,0.18,0.848,0.4,1.24,0.662c0.391,0.261,0.754,0.558,1.086,0.891
		c0.333,0.332,0.63,0.694,0.893,1.085c0.261,0.391,0.483,0.804,0.662,1.238c0.181,0.435,0.317,0.883,0.41,1.345
		C188.212,11.27,188.258,11.735,188.258,12.206L188.258,12.206z"/>
	<path fill="#2767A7" d="M208.774,49.406c-0.02,0.809,0.063,1.608,0.245,2.397c0.101,0.451,0.237,0.892,0.411,1.319
		c0.173,0.429,0.382,0.839,0.625,1.231c0.244,0.394,0.519,0.764,0.823,1.11c0.306,0.346,0.639,0.665,0.999,0.955
		c0.358,0.29,0.74,0.549,1.145,0.774c0.402,0.226,0.822,0.416,1.259,0.57c0.435,0.155,0.88,0.272,1.336,0.352
		c0.455,0.08,0.914,0.12,1.376,0.123c5.738,0,9.325-4.489,9.325-12.298c0-6.784-3.014-12.133-9.325-12.133
		c-0.469,0.012-0.934,0.063-1.394,0.154c-0.461,0.09-0.91,0.219-1.35,0.385c-0.438,0.167-0.859,0.369-1.264,0.606
		s-0.787,0.508-1.146,0.81c-0.358,0.303-0.688,0.633-0.991,0.991s-0.573,0.739-0.812,1.144c-0.238,0.404-0.441,0.826-0.609,1.264
		c-0.167,0.438-0.295,0.887-0.386,1.348c-0.173,0.825-0.26,1.658-0.268,2.5V49.406z M194.857,67.852
		c0.205-2.891,0.37-8.055,0.37-12.994V4.664h13.547v24.819h0.186c0.754-1.015,1.622-1.923,2.603-2.723
		c0.981-0.8,2.045-1.469,3.191-2.005c1.146-0.537,2.341-0.925,3.583-1.165c1.242-0.241,2.496-0.325,3.759-0.255
		c10.556,0,18.077,8.649,17.975,21.991c0,15.681-9.939,23.529-19.921,23.529c-0.647,0.03-1.294,0.016-1.941-0.041
		c-0.646-0.059-1.285-0.159-1.917-0.304c-0.632-0.144-1.251-0.331-1.858-0.559c-0.607-0.229-1.196-0.497-1.767-0.805
		c-0.57-0.309-1.117-0.653-1.641-1.036c-0.525-0.382-1.021-0.799-1.487-1.248c-0.468-0.45-0.902-0.929-1.305-1.438
		s-0.769-1.042-1.099-1.601h-0.205l-0.554,6.149L194.857,67.852z"/>
	<path fill="#2767A7" d="M256.692,46.146c0,7.419,3.136,13.077,8.895,13.077c5.288,0,8.629-5.288,8.629-13.159
		c0-6.415-2.479-13.035-8.608-13.035C259.152,32.988,256.692,39.629,256.692,46.146z M288.172,45.634
		c0,15.843-11.271,23.201-22.871,23.201c-12.687,0-22.545-8.362-22.545-22.545c0-14.183,9.242-23.016,23.262-23.016
		C279.319,23.274,288.172,32.497,288.172,45.634z"/>
	<path fill="#040404" d="M218.468,89.166c0.003-0.204,0.026-0.406,0.068-0.605s0.104-0.393,0.184-0.58s0.179-0.365,0.293-0.534
		c0.115-0.168,0.247-0.323,0.393-0.466c0.146-0.143,0.304-0.27,0.476-0.382c0.17-0.111,0.351-0.205,0.539-0.281
		c0.189-0.076,0.385-0.134,0.584-0.171c0.201-0.038,0.402-0.057,0.607-0.055c0.203,0.002,0.406,0.023,0.605,0.064
		c0.199,0.042,0.394,0.103,0.581,0.182c0.188,0.08,0.366,0.177,0.535,0.291s0.324,0.245,0.467,0.391
		c0.145,0.145,0.271,0.303,0.385,0.473c0.112,0.17,0.206,0.35,0.283,0.539c0.078,0.188,0.136,0.383,0.175,0.583
		c0.038,0.2,0.057,0.402,0.056,0.606c0,0.204-0.021,0.406-0.062,0.606c-0.04,0.199-0.101,0.394-0.179,0.582
		c-0.079,0.188-0.175,0.367-0.288,0.536c-0.114,0.169-0.244,0.325-0.389,0.47c-0.145,0.144-0.301,0.272-0.471,0.386
		c-0.17,0.112-0.35,0.208-0.538,0.285c-0.188,0.079-0.383,0.137-0.582,0.177c-0.2,0.039-0.402,0.06-0.607,0.06
		c-0.197,0.007-0.394-0.006-0.589-0.038c-0.195-0.031-0.385-0.082-0.571-0.151c-0.185-0.069-0.362-0.156-0.53-0.261
		s-0.325-0.224-0.47-0.359c-0.145-0.135-0.275-0.283-0.39-0.443c-0.117-0.161-0.214-0.332-0.296-0.512
		c-0.083-0.181-0.146-0.367-0.191-0.56c-0.044-0.193-0.07-0.389-0.078-0.585V89.166z"/>
	<path fill="#040404" d="M240.48,91.544c-1.521,0.563-3.093,0.816-4.713,0.758c-0.293,0.026-0.586,0.037-0.877,0.032
		c-0.294-0.006-0.586-0.027-0.877-0.063c-0.29-0.036-0.579-0.089-0.864-0.156c-0.284-0.067-0.565-0.149-0.842-0.248
		c-0.275-0.097-0.547-0.209-0.81-0.336c-0.266-0.126-0.522-0.267-0.771-0.421c-0.249-0.153-0.488-0.319-0.72-0.5
		s-0.453-0.372-0.664-0.575s-0.41-0.417-0.598-0.643c-0.187-0.225-0.363-0.46-0.526-0.703c-0.161-0.243-0.312-0.495-0.446-0.755
		c-0.137-0.26-0.258-0.526-0.364-0.799c-0.108-0.272-0.199-0.55-0.277-0.833c-0.078-0.282-0.139-0.567-0.186-0.857
		c-0.048-0.289-0.08-0.58-0.094-0.873c-0.017-0.292-0.017-0.585,0-0.877c0-4.94,3.381-8.957,9.652-8.957
		c1.364-0.019,2.689,0.199,3.977,0.656l-0.799,3.894c-0.938-0.396-1.915-0.573-2.931-0.533c-0.324-0.021-0.646-0.009-0.967,0.035
		c-0.321,0.046-0.634,0.123-0.938,0.231c-0.305,0.109-0.596,0.248-0.872,0.417c-0.277,0.169-0.533,0.364-0.771,0.585
		c-0.237,0.222-0.448,0.465-0.634,0.729c-0.187,0.265-0.345,0.546-0.473,0.844c-0.131,0.296-0.227,0.604-0.294,0.921
		c-0.065,0.317-0.098,0.638-0.098,0.962s0.032,0.645,0.098,0.962c0.067,0.317,0.163,0.625,0.294,0.921
		c0.128,0.298,0.286,0.579,0.473,0.845c0.186,0.265,0.396,0.508,0.634,0.729c0.237,0.222,0.493,0.417,0.771,0.585
		c0.276,0.169,0.567,0.309,0.872,0.418c0.305,0.108,0.617,0.186,0.938,0.23c0.321,0.044,0.643,0.056,0.967,0.035
		c1.038,0.018,2.042-0.16,3.012-0.533L240.48,91.544z"/>
	<path fill="#040404" d="M247.305,83.53c0,2.89,1.21,5.062,3.526,5.062c2.315,0,3.34-2.049,3.34-5.103
		c0-2.48-0.984-5.021-3.34-5.021c-2.357,0-3.423,2.562-3.423,5.063H247.305z M259.602,83.345c0.036,0.556,0.018,1.109-0.055,1.662
		c-0.073,0.551-0.201,1.091-0.38,1.617c-0.181,0.527-0.411,1.031-0.69,1.513c-0.28,0.481-0.604,0.931-0.972,1.348
		c-0.368,0.416-0.775,0.793-1.219,1.131c-0.442,0.337-0.915,0.627-1.415,0.87c-0.5,0.244-1.021,0.437-1.558,0.576
		c-0.54,0.141-1.086,0.229-1.644,0.261h-0.922c-0.289,0.017-0.58,0.019-0.868,0.004c-0.291-0.013-0.579-0.042-0.867-0.085
		c-0.286-0.044-0.57-0.103-0.851-0.176c-0.281-0.073-0.558-0.161-0.829-0.263c-0.271-0.104-0.538-0.22-0.798-0.35
		s-0.512-0.272-0.757-0.429c-0.245-0.157-0.48-0.326-0.706-0.507c-0.228-0.181-0.444-0.373-0.652-0.577
		c-0.206-0.203-0.403-0.417-0.586-0.641c-0.186-0.224-0.358-0.457-0.518-0.699c-0.161-0.241-0.309-0.492-0.442-0.749
		c-0.135-0.258-0.255-0.521-0.361-0.791c-0.107-0.271-0.2-0.545-0.277-0.825c-0.077-0.279-0.141-0.563-0.19-0.849
		c-0.048-0.286-0.082-0.574-0.101-0.864c-0.018-0.289-0.021-0.579-0.009-0.869c-0.035-0.554-0.015-1.104,0.059-1.652
		s0.2-1.085,0.381-1.608c0.179-0.523,0.408-1.024,0.687-1.503c0.277-0.479,0.601-0.926,0.967-1.34
		c0.366-0.416,0.771-0.791,1.211-1.126c0.44-0.336,0.909-0.625,1.406-0.868s1.014-0.435,1.549-0.576
		c0.535-0.141,1.08-0.229,1.633-0.263h1.127c0.535-0.025,1.068,0,1.6,0.078c0.532,0.079,1.05,0.208,1.555,0.388
		c0.506,0.181,0.989,0.409,1.449,0.684c0.461,0.275,0.89,0.593,1.288,0.952c0.398,0.358,0.759,0.754,1.08,1.185
		c0.32,0.43,0.596,0.887,0.827,1.371c0.232,0.484,0.414,0.987,0.547,1.506c0.132,0.521,0.213,1.048,0.241,1.584
		C259.581,82.756,259.602,83.05,259.602,83.345L259.602,83.345z"/>
	<path fill="#040404" d="M262.82,80.497c0-2.05,0-3.895-0.144-5.391h4.427l0.226,2.274h0.123c0.273-0.422,0.595-0.804,0.965-1.143
		c0.371-0.339,0.779-0.626,1.226-0.859c0.445-0.232,0.913-0.405,1.403-0.519c0.49-0.112,0.987-0.159,1.489-0.144
		c0.487-0.024,0.968,0.024,1.44,0.146c0.472,0.123,0.916,0.313,1.329,0.571c0.414,0.258,0.78,0.573,1.098,0.943
		c0.317,0.371,0.573,0.78,0.765,1.229c0.587-0.839,1.317-1.522,2.192-2.05c0.984-0.595,2.05-0.874,3.198-0.841
		c3.217,0,5.656,2.296,5.656,7.317v9.858h-5.083v-9.101c0-2.418-0.779-3.853-2.501-3.853c-0.267,0.005-0.524,0.05-0.777,0.136
		c-0.252,0.086-0.485,0.207-0.7,0.365c-0.214,0.157-0.4,0.344-0.558,0.56c-0.157,0.215-0.277,0.449-0.362,0.701
		c-0.123,0.437-0.185,0.88-0.185,1.333v9.858h-5.104v-9.388c0-2.049-0.758-3.504-2.417-3.504c-0.277,0.007-0.547,0.057-0.808,0.147
		c-0.263,0.092-0.504,0.222-0.723,0.389c-0.222,0.167-0.411,0.365-0.569,0.592c-0.159,0.227-0.28,0.473-0.361,0.736
		c-0.141,0.434-0.209,0.877-0.204,1.332v9.695h-5.104L262.82,80.497z"/>
</g>
</svg>
