<?xml version="1.0" standalone="no"?>
<!DOCTYPE svg PUBLIC "-//W3C//DTD SVG 20010904//EN"
 "http://www.w3.org/TR/2001/REC-SVG-20010904/DTD/svg10.dtd">
<svg version="1.0" xmlns="http://www.w3.org/2000/svg"
 width="171.000000pt" height="163.000000pt" viewBox="0 0 171.000000 163.000000"
 preserveAspectRatio="xMidYMid meet">

<g transform="translate(0.000000,163.000000) scale(0.100000,-0.100000)"
fill="#000000" stroke="none">
<path d="M530 1344 c-53 -23 -89 -63 -105 -118 -18 -60 -21 -338 -4 -416 14
-65 62 -129 119 -158 83 -43 198 -16 247 57 85 125 -24 290 -175 266 l-37 -6
24 20 23 21 -25 0 c-13 0 -36 -10 -51 -21 -33 -26 -43 -19 -22 14 31 47 108
78 222 90 96 10 103 12 82 24 -21 13 -20 14 19 10 88 -10 198 -90 237 -171 14
-31 15 -48 7 -128 -6 -51 -17 -112 -25 -134 -12 -33 -13 -49 -3 -79 10 -35 9
-39 -11 -53 -12 -8 -22 -22 -22 -32 0 -10 -7 -20 -15 -24 -8 -3 -15 -10 -15
-16 0 -5 -8 -19 -17 -29 -10 -11 -24 -27 -32 -36 -17 -21 -81 -14 -120 14 -74
52 -110 63 -200 59 -96 -4 -143 -22 -193 -71 -28 -29 -30 -35 -25 -84 6 -62
40 -127 80 -157 22 -16 43 -21 96 -21 77 0 90 6 316 139 77 46 221 130 319
187 99 57 192 114 208 127 38 32 68 93 68 137 0 94 -50 141 -302 284 -100 58
-255 147 -342 200 -105 62 -178 99 -215 108 -69 16 -68 16 -111 -3z m154 -500
c18 -18 20 -47 6 -75 -14 -25 -68 -26 -86 -1 -30 39 -6 92 41 92 13 0 31 -7
39 -16z"/>
</g>
</svg>
