<?xml version="1.0" standalone="no"?>
<!DOCTYPE svg PUBLIC "-//W3C//DTD SVG 20010904//EN"
 "http://www.w3.org/TR/2001/REC-SVG-20010904/DTD/svg10.dtd">
<svg version="1.0" xmlns="http://www.w3.org/2000/svg"
 width="100.000000pt" height="100.000000pt" viewBox="0 0 600.000000 400.000000"
 preserveAspectRatio="xMidYMid meet">

<g transform="translate(0.000000,400.000000) scale(0.100000,-0.100000)"
fill="#000000" stroke="none">
<path d="M1902 2253 l97 -97 98 97 98 97 -195 0 -195 0 97 -97z"/>
<path d="M203 2246 c-125 -41 -195 -136 -196 -266 -1 -96 18 -154 73 -213 25
-28 51 -48 56 -44 6 3 31 33 57 66 l47 60 -29 20 c-38 28 -55 71 -48 128 10
91 112 147 194 106 77 -37 106 -129 62 -199 -11 -19 -24 -34 -27 -34 -4 0 -15
-7 -26 -15 -17 -13 -15 -17 38 -80 l55 -65 41 37 c51 45 77 94 88 167 22 139
-38 261 -156 316 -58 28 -169 36 -229 16z"/>
<path d="M1733 2253 c-10 -4 -13 -71 -13 -289 l0 -285 78 3 77 3 3 121 3 122
56 -59 c31 -32 61 -59 67 -59 6 0 39 28 73 62 l63 62 0 -127 0 -127 75 0 75 0
0 285 0 285 -26 0 c-20 0 -52 -28 -142 -121 l-117 -122 -108 119 c-102 112
-134 137 -164 127z"/>
<path d="M4577 2253 c-21 -33 -257 -548 -257 -559 0 -11 16 -14 70 -14 l70 0
17 35 17 35 113 0 113 0 17 -35 17 -35 73 0 c52 0 73 4 73 13 0 11 -235 526
-253 555 -9 13 -63 17 -70 5z m93 -364 c0 -5 -27 -9 -59 -9 l-60 0 31 71 32
70 28 -62 c15 -34 28 -66 28 -70z"/>
<path d="M730 1965 l0 -285 178 2 177 3 1 55 c0 30 -2 61 -4 68 -3 8 -33 12
-103 12 l-99 0 0 215 0 215 -75 0 -75 0 0 -285z"/>
<path d="M1090 2241 c0 -5 43 -78 95 -161 l94 -150 3 -123 3 -122 73 -3 72 -3
0 122 0 122 94 146 c52 80 98 154 101 164 6 15 -1 17 -77 17 l-85 0 -43 -81
c-67 -123 -58 -121 -115 -17 l-50 93 -83 3 c-49 2 -82 -1 -82 -7z"/>
<path d="M2450 1965 l0 -285 75 0 75 0 0 75 0 75 80 0 c87 0 135 17 177 62 70
75 70 220 0 297 -46 50 -89 61 -254 61 l-153 0 0 -285z m296 134 c12 -14 18
-34 18 -62 -2 -57 -29 -77 -105 -77 l-59 0 0 80 0 80 63 0 c52 0 67 -4 83 -21z"/>
<path d="M3230 2185 l0 -65 70 0 70 0 0 -220 0 -220 75 0 75 0 0 220 0 220 70
0 70 0 0 65 0 65 -215 0 -215 0 0 -65z"/>
<path d="M3770 1965 l0 -285 75 0 75 0 0 86 0 85 37 -3 c35 -3 40 -8 86 -85
l49 -83 84 0 c50 0 84 4 84 10 0 6 -25 51 -56 100 l-55 90 27 33 c76 91 70
218 -15 290 -46 39 -90 47 -248 47 l-143 0 0 -285z m292 138 c11 -10 18 -30
18 -54 0 -51 -27 -69 -102 -69 l-58 0 0 70 0 70 62 0 c43 0 67 -5 80 -17z"/>
<path d="M5000 1965 l0 -287 148 4 c158 4 189 13 260 73 110 92 114 303 9 413
-63 66 -95 76 -264 80 l-153 4 0 -287z m289 127 c64 -46 79 -154 32 -221 -28
-39 -56 -51 -122 -51 l-49 0 0 151 0 152 57 -6 c31 -3 68 -14 82 -25z"/>
<path d="M5630 1965 l0 -285 179 0 c134 0 180 3 183 13 2 6 4 36 4 66 l-1 54
-107 -2 -108 -2 0 50 0 51 95 0 95 0 0 65 0 65 -95 0 -95 0 0 40 0 40 105 0
105 0 0 65 0 65 -180 0 -180 0 0 -285z"/>
</g>
</svg>
