<?xml version="1.0" encoding="UTF-8"?>
<svg version="1.1" xmlns="http://www.w3.org/2000/svg" width="104" height="40">
<path d="M0 0 C34.32 0 68.64 0 104 0 C104 3.3 104 6.6 104 10 C101.63195507 12.36804493 101.18770357 12.25066389 97.9765625 12.25396729 C97.13528809 12.25960693 96.29401367 12.26524658 95.42724609 12.27105713 C94.50250488 12.26700867 93.57776367 12.26296021 92.625 12.25878906 C91.65256348 12.2622937 90.68012695 12.26579834 89.67822266 12.26940918 C86.4520766 12.27823802 83.22614843 12.27237324 80 12.265625 C77.76562457 12.26697132 75.53124942 12.26891157 73.296875 12.27142334 C68.60934669 12.27437617 63.92189448 12.27007184 59.234375 12.26074219 C53.21478212 12.24934761 47.19536758 12.25590623 41.17578125 12.26788712 C36.56053312 12.27510142 31.94532751 12.27281976 27.33007812 12.26763153 C25.11002583 12.26629384 22.88996972 12.26794689 20.66992188 12.27259064 C17.57150996 12.27764879 14.47339007 12.26995559 11.375 12.25878906 C9.98788818 12.26486176 9.98788818 12.26486176 8.57275391 12.27105713 C7.73147949 12.26541748 6.89020508 12.25977783 6.0234375 12.25396729 C4.92394775 12.25283621 4.92394775 12.25283621 3.80224609 12.25168228 C2 12 2 12 0 10 C0 6.7 0 3.4 0 0 Z M45 5 C46 7 46 7 46 7 Z " fill="#00CFA6" transform="translate(0,28)"/>
<path d="M0 0 C0.75925781 -0.04898438 1.51851562 -0.09796875 2.30078125 -0.1484375 C6.12463357 0.6901815 7.4268544 2.20613011 9.6875 5.375 C10.28455422 8.83680538 10.16075469 12.18799408 10 15.6875 C9.97744141 16.61884766 9.95488281 17.55019531 9.93164062 18.50976562 C9.87292078 20.7998396 9.79086858 23.08657875 9.6875 25.375 C7.0475 25.375 4.4075 25.375 1.6875 25.375 C1.3575 19.765 1.0275 14.155 0.6875 8.375 C-0.3025 8.87 -0.3025 8.87 -1.3125 9.375 C-1.62491455 12.08946979 -1.82586592 14.71409361 -1.9375 17.4375 C-1.99550781 18.57541992 -1.99550781 18.57541992 -2.0546875 19.73632812 C-2.14923562 21.61547195 -2.23196756 23.49520336 -2.3125 25.375 C-4.9525 25.375 -7.5925 25.375 -10.3125 25.375 C-10.42102923 22.49897545 -10.5000515 19.62709168 -10.5625 16.75 C-10.59601562 15.94175781 -10.62953125 15.13351562 -10.6640625 14.30078125 C-10.7532298 8.81699245 -10.00488797 5.71013698 -6.3125 1.375 C-4.04001762 0.23875881 -2.52947236 0.11053157 0 0 Z " fill="#FF2400" transform="translate(39.3125,-0.375)"/>
<path d="M0 0 C2.31 0 4.62 0 7 0 C7.33 5.61 7.66 11.22 8 17 C8.99 16.67 9.98 16.34 11 16 C11.33 10.72 11.66 5.44 12 0 C14.64 0 17.28 0 20 0 C20.08172936 2.5215021 20.14083373 5.04029917 20.1875 7.5625 C20.21263672 8.26697266 20.23777344 8.97144531 20.26367188 9.69726562 C20.33534254 14.88144374 19.47862301 18.41830292 17 23 C13.97792605 25.01471597 13.08273301 25.33719034 9.625 25.4375 C8.49964844 25.49744141 8.49964844 25.49744141 7.3515625 25.55859375 C3.57175196 24.66073178 2.25030693 23.14491231 0 20 C-0.59747088 16.53829217 -0.47325277 13.18696424 -0.3125 9.6875 C-0.28994141 8.75615234 -0.26738281 7.82480469 -0.24414062 6.86523438 C-0.18542078 4.5751604 -0.10336858 2.28842125 0 0 Z " fill="#FF2400" transform="translate(64,0)"/>
<path d="M0 0 C2.16015625 0.47265625 2.16015625 0.47265625 5.22265625 2.41015625 C7.8199328 6.51552885 8.09867377 9.73579896 7.16015625 14.47265625 C5.59765625 16.97265625 5.59765625 16.97265625 3.16015625 18.47265625 C-0.58984375 19.22265625 -0.58984375 19.22265625 -3.83984375 19.47265625 C-4.20907452 12.94957933 -4.20907452 12.94957933 -2.33984375 10.53515625 C-1.84484375 10.18453125 -1.34984375 9.83390625 -0.83984375 9.47265625 C-1.82984375 9.47265625 -2.81984375 9.47265625 -3.83984375 9.47265625 C-4.16984375 14.75265625 -4.49984375 20.03265625 -4.83984375 25.47265625 C-7.14984375 25.47265625 -9.45984375 25.47265625 -11.83984375 25.47265625 C-11.98568439 22.24396879 -12.07408481 19.0161326 -12.15234375 15.78515625 C-12.19423828 14.87314453 -12.23613281 13.96113281 -12.27929688 13.02148438 C-12.36289357 8.42366603 -12.35703014 6.19021852 -9.6015625 2.3671875 C-6.06124516 -0.06146018 -4.16786866 -0.27136374 0 0 Z " fill="#FF2400" transform="translate(96.83984375,-0.47265625)"/>
<path d="M0 0 C2.16015625 0.47265625 2.16015625 0.47265625 5.22265625 2.41015625 C7.8199328 6.51552885 8.09867377 9.73579896 7.16015625 14.47265625 C5.59765625 16.97265625 5.59765625 16.97265625 3.16015625 18.47265625 C-0.58984375 19.22265625 -0.58984375 19.22265625 -3.83984375 19.47265625 C-4.20907452 12.94957933 -4.20907452 12.94957933 -2.33984375 10.53515625 C-1.84484375 10.18453125 -1.34984375 9.83390625 -0.83984375 9.47265625 C-1.82984375 9.47265625 -2.81984375 9.47265625 -3.83984375 9.47265625 C-4.16984375 14.75265625 -4.49984375 20.03265625 -4.83984375 25.47265625 C-7.14984375 25.47265625 -9.45984375 25.47265625 -11.83984375 25.47265625 C-11.98568439 22.24396879 -12.07408481 19.0161326 -12.15234375 15.78515625 C-12.19423828 14.87314453 -12.23613281 13.96113281 -12.27929688 13.02148438 C-12.36289357 8.42366603 -12.35703014 6.19021852 -9.6015625 2.3671875 C-6.06124516 -0.06146018 -4.16786866 -0.27136374 0 0 Z " fill="#FF2300" transform="translate(11.83984375,-0.47265625)"/>
<path d="M0 0 C2.64 0 5.28 0 8 0 C8 5.61 8 11.22 8 17 C5.36 17 2.72 17 0 17 C0 11.39 0 5.78 0 0 Z " fill="#FF2400" transform="translate(20,8)"/>
<path d="M0 0 C4.29 0 8.58 0 13 0 C13 2.64 13 5.28 13 8 C8.71 8 4.42 8 0 8 C0 5.36 0 2.72 0 0 Z " fill="#FF2400" transform="translate(50,8)"/>
<path d="M0 0 C2.5625 -0.25 2.5625 -0.25 5 0 C6 1 6 1 6.125 3.5 C6 6 6 6 5 7 C3.33382885 7.04063832 1.66611905 7.042721 0 7 C-0.66 5.68 -1.32 4.36 -2 3 C-1.34 2.01 -0.68 1.02 0 0 Z " fill="#FF2300" transform="translate(22,0)"/>
</svg>
