<?xml version="1.0" encoding="UTF-8"?>
<svg version="1.1" xmlns="http://www.w3.org/2000/svg" width="134" height="50">
<path d="M0 0 C7 0 7 0 9.65234375 2.1875 C10.40644531 3.115625 11.16054688 4.04375 11.9375 5 C12.70964844 5.928125 13.48179688 6.85625 14.27734375 7.8125 C14.84582031 8.534375 15.41429688 9.25625 16 10 C16.33 6.7 16.66 3.4 17 0 C19.64 0 22.28 0 25 0 C25 8.58 25 17.16 25 26 C18 26 18 26 15.34765625 23.59375 C14.59355469 22.5728125 13.83945312 21.551875 13.0625 20.5 C12.29035156 19.4790625 11.51820312 18.458125 10.72265625 17.40625 C10.15417969 16.6121875 9.58570313 15.818125 9 15 C8.67 18.63 8.34 22.26 8 26 C5.36 26 2.72 26 0 26 C0 17.42 0 8.84 0 0 Z " fill="#F15B21" transform="translate(49,0)"/>
<path d="M0 0 C4.03559479 2.21782253 6.54031906 4.62095717 8 9 C8.38773716 13.73039335 8.48117872 16.05546399 6.3125 20.3125 C3.42364567 23.66981719 1.37206115 25.64419083 -3.109375 26.31640625 C-7.18959937 26.52863269 -9.64273195 26.17201795 -13.375 24.375 C-16.86728038 21.21531775 -18.84286387 18.65226739 -19.12890625 13.82421875 C-18.80597161 8.00160933 -17.14331422 5.04225778 -13 1 C-9.00247674 -0.99876163 -4.33428575 -0.64388289 0 0 Z M-11 11 C-11.55747061 15.80101396 -11.55747061 15.80101396 -9.3125 17.875 C-7.04431505 19.19734055 -7.04431505 19.19734055 -4.4375 18.9375 C-1.49104816 17.80424929 -0.52813248 16.73455286 1 14 C1 13.01 1 12.02 1 11 C-2.96 11 -6.92 11 -11 11 Z " fill="#F15B21" transform="translate(124,0)"/>
<path d="M0 0 C1.63671875 1.0234375 1.63671875 1.0234375 4.01171875 3.2109375 C4.01171875 4.2009375 4.01171875 5.1909375 4.01171875 6.2109375 C0.57860905 8.4996773 -0.13297474 8.35523439 -4.05078125 7.8359375 C-4.92863281 7.72507812 -5.80648437 7.61421875 -6.7109375 7.5 C-7.46246094 7.40460937 -8.21398437 7.30921875 -8.98828125 7.2109375 C-9.64828125 7.2109375 -10.30828125 7.2109375 -10.98828125 7.2109375 C-11.02953125 8.4896875 -11.07078125 9.7684375 -11.11328125 11.0859375 C-11.14808594 12.16488281 -11.14808594 12.16488281 -11.18359375 13.265625 C-11.17159814 15.44957395 -11.17159814 15.44957395 -8.98828125 17.2109375 C-7.66828125 17.2109375 -6.34828125 17.2109375 -4.98828125 17.2109375 C-5.97828125 16.8809375 -6.96828125 16.5509375 -7.98828125 16.2109375 C-7.98828125 14.2309375 -7.98828125 12.2509375 -7.98828125 10.2109375 C-3.36828125 10.2109375 1.25171875 10.2109375 6.01171875 10.2109375 C5.6435535 18.43329473 5.6435535 18.43329473 2.57421875 22.2109375 C-2.09486191 25.85509802 -6.19313287 25.86866907 -11.98828125 25.2109375 C-15.84372923 23.21436623 -17.58633217 21.81386112 -19.98828125 18.2109375 C-21.20485886 12.9391012 -20.98428386 9.2484679 -18.98828125 4.2109375 C-14.40033083 -1.41300172 -6.76025765 -2.68285274 0 0 Z " fill="#F15B21" transform="translate(96.98828125,0.7890625)"/>
<path d="M0 0 C3.3 0 6.6 0 10 0 C12.90474323 5.55690009 15.23485417 11.06765743 17.25 17 C17.518125 17.77472656 17.78625 18.54945312 18.0625 19.34765625 C18.71321767 21.23008951 19.35732065 23.11480725 20 25 C19 26 19 26 17.15234375 26.09765625 C15.1015625 26.06510417 13.05078125 26.03255208 11 26 C10.67 24.68 10.34 23.36 10 22 C7.03 22 4.06 22 1 22 C0.67 23.32 0.34 24.64 0 26 C-2.97 26 -5.94 26 -9 26 C-6.50556932 17.13091313 -3.29501074 8.59475294 0 0 Z M5 9 C4.34 10.98 3.68 12.96 3 15 C4.32 15 5.64 15 7 15 C6.67 13.02 6.34 11.04 6 9 C5.67 9 5.34 9 5 9 Z " fill="#F15B21" transform="translate(28,0)"/>
<path d="M0 0 C7.26 0 14.52 0 22 0 C22 2.31 22 4.62 22 7 C19.69 7 17.38 7 15 7 C15 13.27 15 19.54 15 26 C12.36 26 9.72 26 7 26 C7 19.73 7 13.46 7 7 C4.69 7 2.38 7 0 7 C0 4.69 0 2.38 0 0 Z " fill="#F15C22" transform="translate(0,0)"/>
<path d="M0 0 C2.31 0 4.62 0 7 0 C7.33 1.65 7.66 3.3 8 5 C8.33 3.35 8.66 1.7 9 0 C9.99 0 10.98 0 12 0 C12 0.99 12 1.98 12 3 C12.99 3 13.98 3 15 3 C15 2.01 15 1.02 15 0 C16.27875 -0.061875 17.5575 -0.12375 18.875 -0.1875 C19.95394531 -0.23970703 19.95394531 -0.23970703 21.0546875 -0.29296875 C21.69664063 -0.19628906 22.33859375 -0.09960938 23 0 C23.66 0.99 24.32 1.98 25 3 C25.33 2.01 25.66 1.02 26 0 C26.99 0 27.98 0 29 0 C29 3.63 29 7.26 29 11 C25 10 25 10 24 9 C23.67 9.66 23.34 10.32 23 11 C20.36 11 17.72 11 15 11 C15 9.35 15 7.7 15 6 C14.01 6 13.02 6 12 6 C12 7.65 12 9.3 12 11 C11.38125 10.814375 10.7625 10.62875 10.125 10.4375 C7.95839822 9.76313824 7.95839822 9.76313824 6 11 C4.00039988 11.039992 1.99952758 11.04346799 0 11 C0 7.37 0 3.74 0 0 Z M3 6 C3 6.66 3 7.32 3 8 C3.66 8 4.32 8 5 8 C5 7.34 5 6.68 5 6 C4.34 6 3.68 6 3 6 Z " fill="#000000" transform="translate(103,36)"/>
<path d="M0 0 C0.886875 -0.00257812 1.77375 -0.00515625 2.6875 -0.0078125 C5 0.125 5 0.125 7 1.125 C7 2.115 7 3.105 7 4.125 C9.31 4.785 11.62 5.445 14 6.125 C12.75854982 11.09080074 11.33329746 13.36744707 7 16.125 C3.19555294 17.71018628 0.11378206 18.36698718 -4 18.125 C-1.68143083 16.57928722 0.50638429 15.32881448 3 14.125 C2.34 14.125 1.68 14.125 1 14.125 C0.33333333 12.79166667 -0.33333333 11.45833333 -1 10.125 C2.3 9.465 5.6 8.805 9 8.125 C4.56996305 7.89184016 1.28792387 7.76050813 -2.75 9.6875 C-6 11.125 -6 11.125 -10 10.125 C-6.37 8.145 -2.74 6.165 1 4.125 C1 3.795 1 3.465 1 3.125 C-1.64 3.125 -4.28 3.125 -7 3.125 C-7 2.465 -7 1.805 -7 1.125 C-4.51245214 -0.11877393 -2.77344699 -0.00806235 0 0 Z " fill="#000000" transform="translate(88,31.875)"/>
<path d="M0 0 C1.1446875 0.2784375 1.1446875 0.2784375 2.3125 0.5625 C5.08967375 1.22819173 5.08967375 1.22819173 8 0 C8.66 0.99 9.32 1.98 10 3 C10.99 2.67 11.98 2.34 13 2 C13.33 1.34 13.66 0.68 14 0 C14.33 0.66 14.66 1.32 15 2 C16.32 2 17.64 2 19 2 C19 1.34 19 0.68 19 0 C19.66 0 20.32 0 21 0 C21.33 0.66 21.66 1.32 22 2 C22.95712891 1.98259766 22.95712891 1.98259766 23.93359375 1.96484375 C24.75988281 1.95582031 25.58617188 1.94679687 26.4375 1.9375 C27.26121094 1.92589844 28.08492187 1.91429687 28.93359375 1.90234375 C31 2 31 2 32 3 C32.04063832 4.66617115 32.042721 6.33388095 32 8 C31.34 8 30.68 8 30 8 C29.67 7.01 29.34 6.02 29 5 C28.01 6.485 28.01 6.485 27 8 C9 8 9 8 7.0625 7.4375 C4.47175177 6.88794735 2.5450849 7.36372878 0 8 C0 5.36 0 2.72 0 0 Z M1 2 C1 3.32 1 4.64 1 6 C1.99 5.67 2.98 5.34 4 5 C3.67 4.01 3.34 3.02 3 2 C2.34 2 1.68 2 1 2 Z M23 4 C23 4.66 23 5.32 23 6 C23.66 6 24.32 6 25 6 C25 5.34 25 4.68 25 4 C24.34 4 23.68 4 23 4 Z " fill="#211E1F" transform="translate(33,37)"/>
<path d="M0 0 C0.66 0 1.32 0 2 0 C1.67 2.64 1.34 5.28 1 8 C-0.99954746 8.04254356 -3.00041636 8.04080783 -5 8 C-6 7 -6 7 -6.0625 4.4375 C-6.041875 3.633125 -6.02125 2.82875 -6 2 C-4.7934375 1.7834375 -4.7934375 1.7834375 -3.5625 1.5625 C-1.07896294 1.25864751 -1.07896294 1.25864751 0 0 Z M-5 4 C-4.34 4.66 -3.68 5.32 -3 6 C-3 5.34 -3 4.68 -3 4 C-3.66 4 -4.32 4 -5 4 Z " fill="#241E1F" transform="translate(73,37)"/>
<path d="M0 0 C2.89932357 2.39509338 3.50168276 4.31245243 4 8 C3.34 8 2.68 8 2 8 C2 7.34 2 6.68 2 6 C1.01 6 0.02 6 -1 6 C-1 6.66 -1 7.32 -1 8 C-1.66 8 -2.32 8 -3 8 C-1.125 1.125 -1.125 1.125 0 0 Z " fill="#231F20" transform="translate(27,37)"/>
<path d="M0 0 C1.32 0 2.64 0 4 0 C3.67 1.65 3.34 3.3 3 5 C2.01 4.67 1.02 4.34 0 4 C0 2.68 0 1.36 0 0 Z " fill="#F2561F" transform="translate(130,0)"/>
</svg>
