<svg xmlns="http://www.w3.org/2000/svg" height="70" width="70" class="w-6 h-6" xmlns:xlink="http://www.w3.org/1999/xlink" viewBox="0 0 210.8 219"><defs><mask id="a" x="0" y="0" width="210.8" height="219" maskUnits="userSpaceOnUse"><g transform="translate(-406.6 -402.5)"><ellipse cx="512" cy="512" rx="105.4" ry="109.5" style="fill:#fff"/></g></mask><linearGradient id="b" x1="468.61" y1="500.68" x2="493.31" y2="548.36" gradientTransform="matrix(2, 0, 0, -2, -496, 1555)" gradientUnits="userSpaceOnUse"><stop offset="0.1" stop-color="#0096ff"/><stop offset="0.18" stop-color="#1680ff"/><stop offset="0.39" stop-color="#4d49ff"/><stop offset="0.57" stop-color="#7521ff"/><stop offset="0.71" stop-color="#8d09ff"/><stop offset="0.8" stop-color="#9600ff"/></linearGradient><linearGradient id="c" x1="485.98" y1="548.38" x2="504.76" y2="480.9" gradientTransform="matrix(2, 0, 0, -2, -496, 1555)" gradientUnits="userSpaceOnUse"><stop offset="0.1" stop-color="#9600ff"/><stop offset="0.27" stop-color="#b600df"/><stop offset="0.5" stop-color="#de00b7"/><stop offset="0.69" stop-color="#f6009f"/><stop offset="0.8" stop-color="#ff0096"/></linearGradient><linearGradient id="d" x1="495.51" y1="482.54" x2="533.27" y2="555.44" gradientTransform="matrix(2, 0, 0, -2, -496, 1555)" gradientUnits="userSpaceOnUse"><stop offset="0.1" stop-color="#ff0096"/><stop offset="0.19" stop-color="#ff1680"/><stop offset="0.43" stop-color="#ff4d49"/><stop offset="0.63" stop-color="#ff7521"/><stop offset="0.8" stop-color="#ff8d09"/><stop offset="0.9" stop-color="#ff9600"/></linearGradient></defs><title>Tata Neu logo</title><g style="mask:url(#a)"><ellipse cx="105.4" cy="109.5" rx="105.4" ry="109.5" style="fill:#fff"/></g><path d="M496,478.65a15,15,0,0,0,2-7.46,14.38,14.38,0,0,0-14.1-14.65,14.12,14.12,0,0,0-13.12,9.3l-30.65,78.7a8.08,8.08,0,0,0-.71,3.29,7.75,7.75,0,0,0,7.59,7.89,7.51,7.51,0,0,0,6.5-3.86Z" transform="translate(-406.6 -402.5)" style="fill:url(#b)"/><path d="M470.17,474.37a14.6,14.6,0,0,1,.65-8.45,14.36,14.36,0,0,1,11.54-9.29,14.13,14.13,0,0,1,15.14,10.65l29.8,98.48a22,22,0,0,1,.4,12.38,21,21,0,0,1-17.29,15.72c-11.35,1.46-21.15-6.7-22.92-17.68Z" transform="translate(-406.6 -402.5)" style="fill:url(#c)"/><path d="M581.25,482.87a29,29,0,0,0,3.47-16.33C583.63,453,573.05,442,560,440.86c-12.34-1.07-23.12,6.45-27.44,17.43L489,563.9a22.1,22.1,0,0,0-1.6,11.69c1.29,9.7,9,17.41,18.39,18.34A20.44,20.44,0,0,0,526,582.66Z" transform="translate(-406.6 -402.5)" style="fill:url(#d)"/></svg>