<?xml version="1.0" encoding="UTF-8"?>
<svg version="1.1" xmlns="http://www.w3.org/2000/svg" width="219" height="52">
<path d="M0 0 C72.27 0 144.54 0 219 0 C219 17.16 219 34.32 219 52 C146.73 52 74.46 52 0 52 C0 34.84 0 17.68 0 0 Z " fill="#010001" transform="translate(0,0)"/>
<path d="M0 0 C2.31 0 4.62 0 7 0 C7.20625 0.9075 7.4125 1.815 7.625 2.75 C9.32701987 6.77295604 11.41713969 7.66335197 15 10 C15 11.32 15 12.64 15 14 C9.375 14.25 9.375 14.25 6 12 C6.04640625 13.01320313 6.0928125 14.02640625 6.140625 15.0703125 C6.17816758 16.42184532 6.21456506 17.77341028 6.25 19.125 C6.30027344 20.12273438 6.30027344 20.12273438 6.3515625 21.140625 C6.45217665 26.27194665 5.25713505 29.08319203 2 33 C-2.55803833 35.32966404 -6.08136511 35.25201615 -11 34 C-13.70567626 32.17660948 -15.53728718 30.92542564 -17 28 C-17.67506516 22.14943527 -17.67506516 22.14943527 -15.98828125 19.27734375 C-13.88145095 16.70232894 -11.76904897 14.84603265 -9 13 C-5.8125 12.875 -5.8125 12.875 -3 13 C-3.1875 15.875 -3.1875 15.875 -4 19 C-5.65204456 19.70211894 -7.31923769 20.36971413 -9 21 C-9.89386164 23.54775306 -9.89386164 23.54775306 -10 26 C-7.23011924 28.31543207 -7.23011924 28.31543207 -4.375 27.6875 C-2.06498035 27.2258486 -2.06498035 27.2258486 -1 26 C-0.84193469 24.07521187 -0.748865 22.1450079 -0.68359375 20.21484375 C-0.64169922 19.04501953 -0.59980469 17.87519531 -0.55664062 16.66992188 C-0.51732422 15.43822266 -0.47800781 14.20652344 -0.4375 12.9375 C-0.37272461 11.08415039 -0.37272461 11.08415039 -0.30664062 9.19335938 C-0.20015802 6.12902665 -0.09814576 3.06460927 0 0 Z " fill="#FAFBFB" transform="translate(39,4)"/>
<path d="M0 0 C3.0625 2.4375 3.0625 2.4375 5 5 C5.33 5.33 5.66 5.66 6 6 C6.16796875 7.92578125 6.16796875 7.92578125 6.1875 10.3125 C6.20167969 11.09238281 6.21585938 11.87226563 6.23046875 12.67578125 C5.97395954 15.26261146 5.39182476 16.81351854 4 19 C-0.38820698 21.8574371 -3.80461822 22.64942272 -9 22 C-12.08193978 20.3718054 -14.26420667 18.96990938 -16.375 16.1875 C-17.30178233 12.94376185 -17.35340896 10.35738508 -17 7 C-12.61665556 0.19825863 -7.75437151 -1.26147671 0 0 Z " fill="#F0F5F5" transform="translate(149,17)"/>
<path d="M0 0 C2.31 0 4.62 0 7 0 C7.33 3.63 7.66 7.26 8 11 C8.66 10.175 9.32 9.35 10 8.5 C14.02366618 5.14694485 15.90700467 5.56839023 21 6 C20.3503125 6.70576172 20.3503125 6.70576172 19.6875 7.42578125 C19.130625 8.04839844 18.57375 8.67101563 18 9.3125 C17.443125 9.92738281 16.88625 10.54226562 16.3125 11.17578125 C14.70798502 13.03131335 14.70798502 13.03131335 15 16 C16.09838921 17.93619118 17.2753219 19.82861359 18.5 21.6875 C19.1496875 22.68136719 19.799375 23.67523438 20.46875 24.69921875 C20.9740625 25.45847656 21.479375 26.21773437 22 27 C18.8125 27.4375 18.8125 27.4375 15 27 C13.38409466 25.32837378 12.29590952 23.64251835 11.140625 21.62890625 C10.01210788 19.67308169 10.01210788 19.67308169 7 19 C7 21.64 7 24.28 7 27 C4.69 27 2.38 27 0 27 C0 18.09 0 9.18 0 0 Z " fill="#EDEDED" transform="translate(159,12)"/>
<path d="M0 0 C2.31 0 4.62 0 7 0 C7.33 3.63 7.66 7.26 8 11 C8.66 10.175 9.32 9.35 10 8.5 C14.02366618 5.14694485 15.90700467 5.56839023 21 6 C20.21625 6.7425 19.4325 7.485 18.625 8.25 C16.38733567 10.59421977 15.30629174 12.14324985 14 15 C14.5775 15.78246094 15.155 16.56492187 15.75 17.37109375 C16.86375 18.88896484 16.86375 18.88896484 18 20.4375 C18.7425 21.44683594 19.485 22.45617187 20.25 23.49609375 C22 26 22 26 22 27 C16.79974076 27.7051199 16.79974076 27.7051199 14 27 C12.22827497 25.03906162 11.11270621 23.09802975 9.91015625 20.75 C9.60980469 20.1725 9.30945313 19.595 9 19 C8.67 19 8.34 19 8 19 C7.67 21.64 7.34 24.28 7 27 C4.69 27 2.38 27 0 27 C0 18.09 0 9.18 0 0 Z " fill="#EDEDED" transform="translate(91,12)"/>
<path d="M0 0 C6.6 0 13.2 0 20 0 C19.67 1.98 19.34 3.96 19 6 C17.02 6 15.04 6 13 6 C13 12.93 13 19.86 13 27 C10.69 27 8.38 27 6 27 C6 20.07 6 13.14 6 6 C4.02 6 2.04 6 0 6 C0 4.02 0 2.04 0 0 Z " fill="#EDEDED" transform="translate(61,12)"/>
<path d="M0 0 C6.6 0 13.2 0 20 0 C19.67 1.98 19.34 3.96 19 6 C17.02 6 15.04 6 13 6 C13 12.93 13 19.86 13 27 C11.02 27 9.04 27 7 27 C7 20.07 7 13.14 7 6 C4.69 6 2.38 6 0 6 C0 4.02 0 2.04 0 0 Z " fill="#F8F8F8" transform="translate(114,12)"/>
<path d="M0 0 C2.31 0 4.62 0 7 0 C7 6.27 7 12.54 7 19 C4.69 19 2.38 19 0 19 C0 12.73 0 6.46 0 0 Z " fill="#E0E0E0" transform="translate(82,20)"/>
<path d="M0 0 C0.66 0 1.32 0 2 0 C2.33 3.96 2.66 7.92 3 12 C-2 15 -2 15 -4.1875 14.8125 C-6 14 -6 14 -8 12 C-7.67028521 8.70285207 -7.3773161 7.3773161 -5 5 C-3.68 5 -2.36 5 -1 5 C-0.67 3.35 -0.34 1.7 0 0 Z " fill="#0E0005" transform="translate(36,18)"/>
<path d="M0 0 C0.33 0 0.66 0 1 0 C1 1.98 1 3.96 1 6 C-4.75 6.125 -4.75 6.125 -7 5 C-6.97679688 5.80824219 -6.95359375 6.61648437 -6.9296875 7.44921875 C-6.90261719 9.05216797 -6.90261719 9.05216797 -6.875 10.6875 C-6.85179688 11.74324219 -6.82859375 12.79898437 -6.8046875 13.88671875 C-7.11185261 18.78293059 -8.30344591 21.27104804 -11.6875 24.8125 C-15.55091689 27.36381304 -17.46188023 27.51374941 -22 27 C-22.99 26.67 -23.98 26.34 -25 26 C-24.67 25.34 -24.34 24.68 -24 24 C-22.07421875 23.7265625 -22.07421875 23.7265625 -19.6875 23.625 C-16.32563626 23.33103735 -15.24637882 23.19094358 -12.5 21.0625 C-9.74569048 17.27532441 -9.69354389 13.92502594 -9.4375 9.375 C-9.39431641 8.66859375 -9.35113281 7.9621875 -9.30664062 7.234375 C-9.20055249 5.48981463 -9.09977111 3.74493303 -9 2 C-6.03 2.66 -3.06 3.32 0 4 C0 2.68 0 1.36 0 0 Z " fill="#C51A4F" transform="translate(54,14)"/>
<path d="M0 0 C2.31 0 4.62 0 7 0 C6.67 0.99 6.34 1.98 6 3 C4.68 2.67 3.36 2.34 2 2 C2.02356567 3.15786011 2.02356567 3.15786011 2.04760742 4.33911133 C2.10989607 7.83016662 2.14897173 11.32110509 2.1875 14.8125 C2.21263672 16.02744141 2.23777344 17.24238281 2.26367188 18.49414062 C2.27817383 20.23920898 2.27817383 20.23920898 2.29296875 22.01953125 C2.31653442 23.62985229 2.31653442 23.62985229 2.34057617 25.27270508 C2 28 2 28 0.6496582 29.86206055 C-1.61300916 31.42285566 -3.31657954 31.21757463 -6 31 C-6.33 30.01 -6.66 29.02 -7 28 C-5.7934375 27.7834375 -5.7934375 27.7834375 -4.5625 27.5625 C-2.07896294 27.25864751 -2.07896294 27.25864751 -1 26 C-0.84193469 24.07521187 -0.748865 22.1450079 -0.68359375 20.21484375 C-0.64169922 19.04501953 -0.59980469 17.87519531 -0.55664062 16.66992188 C-0.49766602 14.82237305 -0.49766602 14.82237305 -0.4375 12.9375 C-0.37272461 11.08415039 -0.37272461 11.08415039 -0.30664062 9.19335938 C-0.20015802 6.12902665 -0.09814576 3.06460927 0 0 Z " fill="#23C9C4" transform="translate(39,4)"/>
<path d="M0 0 C3.625 0.375 3.625 0.375 7 1 C7.625 3.8125 7.625 3.8125 8 7 C7.01 8.485 7.01 8.485 6 10 C3.0625 10.4375 3.0625 10.4375 0 10 C-1.9375 8.25 -1.9375 8.25 -3 6 C-2.73495121 2.99611368 -2.16695725 2.16695725 0 0 Z " fill="#0B0B0B" transform="translate(142,23)"/>
<path d="M0 0 C0 0.66 0 1.32 0 2 C-1.36125 2.37125 -1.36125 2.37125 -2.75 2.75 C-6.34615344 4.13313594 -7.84683629 4.81012784 -10 8 C-10.62243052 11.32660346 -10.87103214 14.62104218 -11 18 C-13.5417464 15.76245197 -13.96607611 15.22474575 -14.5 11.6875 C-13.84086694 6.82639368 -12.43461861 5.43461861 -9 2 C-5.5647952 -0.29013653 -4.014669 -0.17842973 0 0 Z " fill="#10D2CC" transform="translate(36,17)"/>
<path d="M0 0 C3.51455559 0.94987989 4.77555186 1.65945799 6.8125 4.75 C8.08330879 8.228003 8.54497511 10.34088143 8 14 C5.90741149 17.17496188 4.17308714 18.88460857 1 21 C-1.1875 20.625 -1.1875 20.625 -3 20 C-2.030625 19.7525 -1.06125 19.505 -0.0625 19.25 C0.948125 18.8375 1.95875 18.425 3 18 C4.07768107 15.1733965 4.1351605 12.43992868 4.125 9.4375 C4.12886719 8.29087891 4.12886719 8.29087891 4.1328125 7.12109375 C4.07907384 4.81001505 4.07907384 4.81001505 3 2 C2.01 1.67 1.02 1.34 0 1 C0 0.67 0 0.34 0 0 Z " fill="#CB0744" transform="translate(150,18)"/>
<path d="M0 0 C0.66 0.33 1.32 0.66 2 1 C1.505 1.70125 1.01 2.4025 0.5 3.125 C-1.25939802 6.49717954 -1.46010455 8.24247954 -1 12 C0.39924945 15.30101131 0.39924945 15.30101131 2 18 C-0.32758311 17.06896676 -1.74357132 16.34617872 -3.25 14.3125 C-4.32012626 11.01294404 -4.3631189 8.44962955 -4 5 C-2 2.0625 -2 2.0625 0 0 Z " fill="#10C7C1" transform="translate(136,19)"/>
<path d="M0 0 C0.66 0 1.32 0 2 0 C2.3125 2.3125 2.3125 2.3125 2 5 C0.34467377 6.01866229 -1.32260138 7.01810813 -3 8 C-3.88658466 10.59122743 -3.88658466 10.59122743 -4 13 C-4.99 12.34 -5.98 11.68 -7 11 C-6.25 6.25 -6.25 6.25 -4 4 C-2.68 4 -1.36 4 0 4 C0 2.68 0 1.36 0 0 Z " fill="#CF2157" transform="translate(35,19)"/>
<path d="M0 0 C2.125 0.375 2.125 0.375 4 1 C4.5625 2.9375 4.5625 2.9375 5 5 C4 6 4 6 1.4375 6.0625 C0.2309375 6.0315625 0.2309375 6.0315625 -1 6 C-1.625 4.125 -1.625 4.125 -2 2 C-1.34 1.34 -0.68 0.68 0 0 Z " fill="#E0E0E0" transform="translate(84,12)"/>
<path d="M0 0 C0.33 0 0.66 0 1 0 C2.84585366 8.64195122 2.84585366 8.64195122 0.87109375 11.8125 C-0.6875 13.1875 -0.6875 13.1875 -4 15 C-6.375 14.8125 -6.375 14.8125 -8 14 C-6.02 13.34 -4.04 12.68 -2 12 C-1.34 8.04 -0.68 4.08 0 0 Z " fill="#A43054" transform="translate(155,24)"/>
<path d="M0 0 C0.99 0.33 1.98 0.66 3 1 C3 3.97 3 6.94 3 10 C0 7 0 7 -0.1875 3.3125 C-0.125625 2.219375 -0.06375 1.12625 0 0 Z " fill="#21C5C0" transform="translate(22,25)"/>
<path d="M0 0 C0.66 0.33 1.32 0.66 2 1 C0.68 3.64 -0.64 6.28 -2 9 C-2.66 9 -3.32 9 -4 9 C-3.46930939 5.17902761 -2.50298434 2.93828597 0 0 Z " fill="#0DD1CA" transform="translate(136,19)"/>
</svg>
