<?xml version="1.0" encoding="UTF-8"?>
<svg version="1.1" xmlns="http://www.w3.org/2000/svg" width="114" height="114">
<path d="M0 0 C0.84487976 -0.01022186 1.68975952 -0.02044373 2.5602417 -0.03097534 C5.33619 -0.05863622 8.11113781 -0.05686421 10.88720703 -0.05224609 C12.82862716 -0.06002758 14.77004391 -0.06869848 16.7114563 -0.07821655 C20.77487234 -0.0931129 24.83794076 -0.09257945 28.90136719 -0.08203125 C34.09219861 -0.0704482 39.28160126 -0.10429826 44.47219658 -0.1507206 C48.48044056 -0.18027814 52.48834373 -0.18192761 56.4966774 -0.17570114 C58.40953525 -0.17672354 60.32241319 -0.18712333 62.23516464 -0.20732498 C80.17528199 -0.37355284 80.17528199 -0.37355284 86.60964966 4.57876587 C91.52488914 10.41224187 92.86643927 14.83036395 92.81933594 22.27929688 C92.8295578 23.12417664 92.83977966 23.9690564 92.85031128 24.83953857 C92.87797215 27.61548688 92.87620015 30.39043469 92.87158203 33.16650391 C92.87936352 35.10792403 92.88803441 37.04934078 92.89755249 38.99075317 C92.91244883 43.05416921 92.91191539 47.11723764 92.90136719 51.18066406 C92.88978414 56.37149549 92.9236342 61.56089813 92.97005653 66.75149345 C92.99961408 70.75973743 93.00126355 74.76764061 92.99503708 78.77597427 C92.99605948 80.68883213 93.00645927 82.60171007 93.02666092 84.51446152 C93.19288878 102.45457886 93.19288878 102.45457886 88.24057007 108.88894653 C82.40709407 113.80418602 77.98897199 115.14573615 70.54003906 115.09863281 C69.6951593 115.10885468 68.85027954 115.11907654 67.97979736 115.12960815 C65.20384906 115.15726903 62.42890125 115.15549703 59.65283203 115.15087891 C57.7114119 115.15866039 55.76999515 115.16733129 53.82858276 115.17684937 C49.76516672 115.19174571 45.7020983 115.19121226 41.63867188 115.18066406 C36.44784045 115.16908101 31.2584378 115.20293108 26.06784248 115.24935341 C22.05959851 115.27891095 18.05169533 115.28056042 14.04336166 115.27433395 C12.13050381 115.27535635 10.21762587 115.28575615 8.30487442 115.30595779 C-9.63524293 115.47218565 -9.63524293 115.47218565 -16.0696106 110.51986694 C-20.98485008 104.68639095 -22.32640021 100.26826886 -22.27929688 92.81933594 C-22.28951874 91.97445618 -22.2997406 91.12957642 -22.31027222 90.25909424 C-22.33793309 87.48314594 -22.33616109 84.70819813 -22.33154297 81.93212891 C-22.33932445 79.99070878 -22.34799535 78.04929203 -22.35751343 76.10787964 C-22.37240977 72.0444636 -22.37187633 67.98139518 -22.36132812 63.91796875 C-22.34974508 58.72713733 -22.38359514 53.53773468 -22.43001747 48.34713936 C-22.45957502 44.33889538 -22.46122449 40.3309922 -22.45499802 36.32265854 C-22.45602042 34.40980069 -22.46642021 32.49692274 -22.48662186 30.5841713 C-22.65284971 12.64405395 -22.65284971 12.64405395 -17.70053101 6.20968628 C-11.86705501 1.2944468 -7.44893292 -0.04710334 0 0 Z " fill="#FEFEFE" transform="translate(21.72998046875,-0.54931640625)"/>
<path d="M0 0 C1.98 0 3.96 0 6 0 C7.17192435 3.12305373 8.33663876 6.24874739 9.5 9.375 C9.83386719 10.26445313 10.16773437 11.15390625 10.51171875 12.0703125 C10.82753906 12.92109375 11.14335938 13.771875 11.46875 14.6484375 C11.90864258 15.82672119 11.90864258 15.82672119 12.35742188 17.02880859 C13 19 13 19 13 21 C11.35 21 9.7 21 8 21 C7.67 19.35 7.34 17.7 7 16 C3.04 16.495 3.04 16.495 -1 17 C-1.33 18.32 -1.66 19.64 -2 21 C-3.65 21 -5.3 21 -7 21 C-6.26951699 16.31196344 -4.63363115 12.09114445 -2.9375 7.6875 C-2.51500977 6.57665039 -2.51500977 6.57665039 -2.08398438 5.44335938 C-1.39281425 3.62757345 -0.69688311 1.81360101 0 0 Z " fill="#0D0D0D" transform="translate(35,47)"/>
<path d="M0 0 C1.32 0 2.64 0 4 0 C4.33 5.28 4.66 10.56 5 16 C9.47702364 17.06537205 9.47702364 17.06537205 12 17 C12 11.39 12 5.78 12 0 C13.65 0 15.3 0 17 0 C17.08139142 2.39652528 17.14067009 4.79025436 17.1875 7.1875 C17.21263672 7.86103516 17.23777344 8.53457031 17.26367188 9.22851562 C17.32887104 13.68379218 16.82191365 16.50714185 14 20 C10.40735548 21.19754817 7.77282526 21.33094958 4 21 C1.79296875 19.52734375 1.79296875 19.52734375 0 17 C-0.4824588 14.06612892 -0.37775601 11.21295665 -0.25 8.25 C-0.23195313 7.45722656 -0.21390625 6.66445313 -0.1953125 5.84765625 C-0.14833082 3.89791652 -0.07659044 1.94880122 0 0 Z " fill="#111111" transform="translate(71,47)"/>
<path d="M0 0 C5.28 0 10.56 0 16 0 C14.91543372 4.33826511 12.99149595 7.1908326 10.4375 10.75 C10.01275391 11.35199219 9.58800781 11.95398438 9.15039062 12.57421875 C8.10564478 14.05329714 7.05353984 15.52717259 6 17 C9.3 17.33 12.6 17.66 16 18 C16 18.99 16 19.98 16 21 C10.39 21 4.78 21 -1 21 C0.08456628 16.66173489 2.00850405 13.8091674 4.5625 10.25 C4.98724609 9.64800781 5.41199219 9.04601562 5.84960938 8.42578125 C6.89435522 6.94670286 7.94646016 5.47282741 9 4 C6.03 3.67 3.06 3.34 0 3 C0 2.01 0 1.02 0 0 Z " fill="#070707" transform="translate(9,47)"/>
<path d="M0 0 C3.96 0 7.92 0 12 0 C12 0.99 12 1.98 12 3 C9.69 3 7.38 3 5 3 C5 4.98 5 6.96 5 9 C7.31 9 9.62 9 12 9 C12 9.99 12 10.98 12 12 C9.69 12 7.38 12 5 12 C5 14.97 5 17.94 5 21 C3.35 21 1.7 21 0 21 C0 14.07 0 7.14 0 0 Z " fill="#161616" transform="translate(53,47)"/>
<path d="M0 0 C1.32 0 2.64 0 4 0 C4 5.94 4 11.88 4 18 C6.64 18 9.28 18 12 18 C12 18.99 12 19.98 12 21 C8.04 21 4.08 21 0 21 C0 14.07 0 7.14 0 0 Z " fill="#0C0C0C" transform="translate(94,47)"/>
<path d="M0 0 C0.66 0 1.32 0 2 0 C2.66 2.64 3.32 5.28 4 8 C2.02 8 0.04 8 -2 8 C-1.34 5.36 -0.68 2.72 0 0 Z " fill="#DCDCDC" transform="translate(37,52)"/>
</svg>
