<?xml version="1.0" encoding="UTF-8"?>
<svg version="1.1" xmlns="http://www.w3.org/2000/svg" width="96" height="96">
<path d="M0 0 C0 1.32 0 2.64 0 4 C-5.28 5.32 -10.56 6.64 -16 8 C-13.60054266 8 -11.53322445 7.45610087 -9.1875 6.9375 C1.24460719 5.03951191 10.49387118 6.38641604 20 11 C20 12.32 20 13.64 20 15 C19.34 15.33 18.68 15.66 18 16 C16.60293419 15.40339894 15.23189743 14.74554837 13.875 14.0625 C4.06309723 9.98722345 -7.01896217 10.92046346 -16.765625 14.734375 C-19.29497335 16.16708281 -21.04369329 17.8642156 -23 20 C-22.25234375 19.57847656 -21.5046875 19.15695313 -20.734375 18.72265625 C-19.74953125 18.17480469 -18.7646875 17.62695312 -17.75 17.0625 C-16.77546875 16.51722656 -15.8009375 15.97195313 -14.796875 15.41015625 C-9.88884346 12.9355761 -5.69168546 12.87063619 -0.25 12.9375 C0.44738281 12.94201172 1.14476562 12.94652344 1.86328125 12.95117188 C3.57555803 12.9628998 5.28779033 12.98083347 7 13 C7.495 14.485 7.495 14.485 8 16 C10.51875822 17.37219101 10.51875822 17.37219101 13.5625 18.625 C21.54318408 22.47774404 26.70221793 27.65677334 30.5 35.6875 C33.53874067 44.41031362 33.3172241 54.30242192 29.38671875 62.6875 C24.55490589 70.74505835 18.1321709 76.55600178 9.1875 79.62109375 C6.02903198 80.16818553 2.95195529 80.09214773 -0.25 80.0625 C-1.51328125 80.05347656 -2.7765625 80.04445313 -4.078125 80.03515625 C-5.52445313 80.01775391 -5.52445313 80.01775391 -7 80 C-7 80.66 -7 81.32 -7 82 C4.59398275 81.66587946 13.59483111 79.93012445 23 73 C24.98 73.99 24.98 73.99 27 75 C20.01085835 82.89096638 12.37397487 85.77094724 1.9453125 86.9296875 C-4.33455282 87.04160589 -9.94221377 85.61194312 -16 84 C-16.66 84 -17.32 84 -18 84 C-5.43983512 88.98075504 4.04141082 88.31866308 17 85 C17.33 86.32 17.66 87.64 18 89 C12.053928 92.03910346 6.63093294 92.65226572 0 93 C0 93.99 0 94.98 0 96 C-14.65525425 95.73998742 -25.43050111 91.30981711 -35.93359375 81.125 C-46.30993853 70.05689891 -48.60518892 57.55168001 -48.3125 42.8984375 C-48.04428542 37.0133627 -46.74546012 32.21637422 -44 27 C-43.5875 26.154375 -43.175 25.30875 -42.75 24.4375 C-36.49365549 12.77794887 -25.96863213 5.20420318 -13.484375 1.19140625 C-8.93918482 0.07056854 -4.66747795 -0.19861608 0 0 Z " fill="#FCFBFB" transform="translate(48,0)"/>
<path d="M0 0 C0 1.32 0 2.64 0 4 C-5.28 5.32 -10.56 6.64 -16 8 C-13.60054266 8 -11.53322445 7.45610087 -9.1875 6.9375 C1.24460719 5.03951191 10.49387118 6.38641604 20 11 C20 12.32 20 13.64 20 15 C19.34 15.33 18.68 15.66 18 16 C16.60293419 15.40339894 15.23189743 14.74554837 13.875 14.0625 C4.06309723 9.98722345 -7.01896217 10.92046346 -16.765625 14.734375 C-19.29497335 16.16708281 -21.04369329 17.8642156 -23 20 C-22.25234375 19.57847656 -21.5046875 19.15695313 -20.734375 18.72265625 C-19.74953125 18.17480469 -18.7646875 17.62695312 -17.75 17.0625 C-16.77546875 16.51722656 -15.8009375 15.97195313 -14.796875 15.41015625 C-9.88884346 12.9355761 -5.69168546 12.87063619 -0.25 12.9375 C0.44738281 12.94201172 1.14476562 12.94652344 1.86328125 12.95117188 C3.57555803 12.9628998 5.28779033 12.98083347 7 13 C7 14.32 7 15.64 7 17 C5.89205078 16.93039063 5.89205078 16.93039063 4.76171875 16.859375 C-5.56083573 16.49211766 -14.16550849 18.71115033 -22.28125 25.296875 C-28.30495088 31.26581496 -31.27014362 38.74656145 -31.375 47.1875 C-31.21962496 55.70399435 -29.05205834 63.98860653 -23.125 70.36328125 C-18.28027981 74.09478449 -12.54920487 76.49905698 -7 79 C-7 79.99 -7 80.98 -7 82 C4.59398275 81.66587946 13.59483111 79.93012445 23 73 C24.98 73.99 24.98 73.99 27 75 C20.01085835 82.89096638 12.37397487 85.77094724 1.9453125 86.9296875 C-4.33455282 87.04160589 -9.94221377 85.61194312 -16 84 C-16.66 84 -17.32 84 -18 84 C-5.43983512 88.98075504 4.04141082 88.31866308 17 85 C17.33 86.32 17.66 87.64 18 89 C12.053928 92.03910346 6.63093294 92.65226572 0 93 C0 93.99 0 94.98 0 96 C-14.65525425 95.73998742 -25.43050111 91.30981711 -35.93359375 81.125 C-46.30993853 70.05689891 -48.60518892 57.55168001 -48.3125 42.8984375 C-48.04428542 37.0133627 -46.74546012 32.21637422 -44 27 C-43.5875 26.154375 -43.175 25.30875 -42.75 24.4375 C-36.49365549 12.77794887 -25.96863213 5.20420318 -13.484375 1.19140625 C-8.93918482 0.07056854 -4.66747795 -0.19861608 0 0 Z " fill="#F1B51A" transform="translate(48,0)"/>
<path d="M0 0 C0.69738281 0.00451172 1.39476562 0.00902344 2.11328125 0.01367188 C3.82555803 0.0253998 5.53779033 0.04333347 7.25 0.0625 C7.25 1.3825 7.25 2.7025 7.25 4.0625 C6.14205078 3.99289063 6.14205078 3.99289063 5.01171875 3.921875 C-5.31083573 3.55461766 -13.91550849 5.77365033 -22.03125 12.359375 C-28.05495088 18.32831496 -31.02014362 25.80906145 -31.125 34.25 C-30.96962496 42.76649435 -28.80205834 51.05110653 -22.875 57.42578125 C-18.03027981 61.15728449 -12.29920487 63.56155698 -6.75 66.0625 C-6.75 67.0525 -6.75 68.0425 -6.75 69.0625 C4.84398275 68.72837946 13.84483111 66.99262445 23.25 60.0625 C24.57 60.7225 25.89 61.3825 27.25 62.0625 C20.26839197 69.94496068 12.60070056 72.90214174 2.15625 73.95703125 C-10.17280844 74.28991583 -18.78943041 70.40839638 -27.75 62.0625 C-35.28351202 54.36191412 -38.12029286 45.0873449 -38.25 34.5 C-38.12838072 24.59020072 -35.19238578 17.56351875 -29.41015625 9.55859375 C-27.26050806 7.62138138 -25.57746417 7.5656223 -22.75 7.0625 C-20.86522911 6.12145127 -19.01093134 5.11750339 -17.1875 4.0625 C-11.14000413 0.57323747 -6.95299331 -0.08543376 0 0 Z " fill="#E45825" transform="translate(47.75,12.9375)"/>
<path d="M0 0 C0 1.32 0 2.64 0 4 C-1.03898437 4.24234375 -2.07796875 4.4846875 -3.1484375 4.734375 C-16.98834475 8.02777111 -28.32733753 10.81501501 -36.6875 23.125 C-43.22887644 34.02729406 -45.84158116 44.72671264 -43.33984375 57.32421875 C-40.00409227 69.52642653 -33.89708072 79.30694624 -23 86 C-15.5385795 89.67571207 -8.32480048 91.79328938 0 92 C0 93.32 0 94.64 0 96 C-14.65525425 95.73998742 -25.43050111 91.30981711 -35.93359375 81.125 C-46.30993853 70.05689891 -48.60518892 57.55168001 -48.3125 42.8984375 C-48.04428542 37.0133627 -46.74546012 32.21637422 -44 27 C-43.5875 26.154375 -43.175 25.30875 -42.75 24.4375 C-36.49365549 12.77794887 -25.96863213 5.20420318 -13.484375 1.19140625 C-8.93918482 0.07056854 -4.66747795 -0.19861608 0 0 Z " fill="#23BBBB" transform="translate(48,0)"/>
<path d="M0 0 C0 0.99 0 1.98 0 3 C-1.90625 4.2890625 -1.90625 4.2890625 -4.5 5.625 C-15.14153078 11.76608141 -20.10615007 20.44658518 -23.609375 32.01171875 C-25.75243483 42.91989328 -23.06775538 53.40372177 -17.3125 62.75 C-10.05859435 72.71733669 -1.91843894 77.34720472 10.140625 79.58203125 C18.60505139 80.81931762 25.78858066 79.10292446 34 77 C34.33 78.32 34.66 79.64 35 81 C24.83256787 86.19668753 13.91945147 85.65047088 3 83 C-10.29834332 78.11325938 -19.01194787 69.75503787 -25 57 C-29.32341628 46.13760891 -29.45464039 34.84361468 -25.31640625 23.9140625 C-20.96122395 14.27321385 -12.05413236 0 0 0 Z " fill="#7BAD43" transform="translate(31,8)"/>
<path d="M0 0 C0.69738281 0.00451172 1.39476562 0.00902344 2.11328125 0.01367188 C3.82555803 0.0253998 5.53779033 0.04333347 7.25 0.0625 C7.25 1.3825 7.25 2.7025 7.25 4.0625 C6.14205078 3.99289063 6.14205078 3.99289063 5.01171875 3.921875 C-5.31083573 3.55461766 -13.91550849 5.77365033 -22.03125 12.359375 C-28.05495088 18.32831496 -31.02014362 25.80906145 -31.125 34.25 C-30.96962496 42.76649435 -28.80205834 51.05110653 -22.875 57.42578125 C-18.03027981 61.15728449 -12.29920487 63.56155698 -6.75 66.0625 C-6.75 67.0525 -6.75 68.0425 -6.75 69.0625 C-14.88522421 68.43671352 -21.68683128 63.91873241 -27.1796875 58.09375 C-34.55711053 48.55081474 -35.57365867 38.74890348 -34.75 27.0625 C-32.86881811 18.30362128 -27.30858261 10.17091111 -19.92578125 5.13671875 C-12.9654651 1.24303054 -7.95464046 -0.09774133 0 0 Z " fill="#B73080" transform="translate(47.75,12.9375)"/>
<path d="M0 0 C8.49609375 -0.09765625 8.49609375 -0.09765625 11 0 C12 1 12 1 12.1328125 4.125 C12.13023438 5.40375 12.12765625 6.6825 12.125 8 C12.12757812 9.27875 12.13015625 10.5575 12.1328125 11.875 C12 15 12 15 11 16 C7.3308423 16.14310287 3.67284559 16.04221662 0 16 C0 10.72 0 5.44 0 0 Z " fill="#0A0B0B" transform="translate(68,40)"/>
<path d="M0 0 C3.96 0 7.92 0 12 0 C12 0.99 12 1.98 12 3 C9.36 3 6.72 3 4 3 C4 3.99 4 4.98 4 6 C6.97 6 9.94 6 13 6 C13 7.32 13 8.64 13 10 C10.03 10 7.06 10 4 10 C4 10.99 4 11.98 4 13 C6.64 13 9.28 13 12 13 C12 13.99 12 14.98 12 16 C8.04 16 4.08 16 0 16 C0 10.72 0 5.44 0 0 Z " fill="#1A1B1B" transform="translate(51,40)"/>
<path d="M0 0 C3.3 0 6.6 0 10 0 C10 0.99 10 1.98 10 3 C7.69 3 5.38 3 3 3 C3 3.66 3 4.32 3 5 C3.94875 5.12375 4.8975 5.2475 5.875 5.375 C9 6 9 6 11 8 C11.375 10.9375 11.375 10.9375 11 14 C9.4375 15.9375 9.4375 15.9375 7 17 C3.375 16.875 3.375 16.875 0 16 C-0.66 15.01 -1.32 14.02 -2 13 C-1.01 12.34 -0.02 11.68 1 11 C4.1875 11.875 4.1875 11.875 7 13 C7 11.68 7 10.36 7 9 C4.69 9 2.38 9 0 9 C-1.15941038 5.52176885 -0.70820884 3.54104422 0 0 Z " fill="#FEFEFE" transform="translate(85,40)"/>
<path d="M0 0 C4.29 0 8.58 0 13 0 C11.875 5.625 11.875 5.625 8.9375 8.8125 C8.38964844 9.41707031 7.84179688 10.02164063 7.27734375 10.64453125 C6.85582031 11.09183594 6.43429688 11.53914063 6 12 C8.31 12.33 10.62 12.66 13 13 C13 13.99 13 14.98 13 16 C8.71 16 4.42 16 0 16 C1.0185256 11.92589762 1.82592899 10.73535019 4.5625 7.75 C5.52349609 6.69039062 5.52349609 6.69039062 6.50390625 5.609375 C7.24447266 4.81273437 7.24447266 4.81273437 8 4 C5.36 3.67 2.72 3.34 0 3 C0 2.01 0 1.02 0 0 Z " fill="#0D0E0E" transform="translate(34,40)"/>
<path d="M0 0 C0.33 0.66 0.66 1.32 1 2 C0.01 3.32 -0.98 4.64 -2 6 C0.31 6.33 2.62 6.66 5 7 C5 7.99 5 8.98 5 10 C0.71 10 -3.58 10 -8 10 C-6.95475221 5.81900884 -6.5894258 5.27154064 -3.4375 2.75 C-2.79683594 2.22921875 -2.15617187 1.7084375 -1.49609375 1.171875 C-1.00238281 0.78515625 -0.50867187 0.3984375 0 0 Z " fill="#070808" transform="translate(42,46)"/>
<path d="M0 0 C2.97 0 5.94 0 9 0 C9 0.99 9 1.98 9 3 C6.03 3 3.06 3 0 3 C0 2.01 0 1.02 0 0 Z " fill="#E9E9E9" transform="translate(71,50)"/>
<path d="M0 0 C2.97 0 5.94 0 9 0 C9 0.99 9 1.98 9 3 C6.03 3 3.06 3 0 3 C0 2.01 0 1.02 0 0 Z " fill="#E9E9E9" transform="translate(71,43)"/>
</svg>
